<?xml version="1.0" encoding="UTF-8" standalone="no"?>
<svg
   xmlns:dc="http://purl.org/dc/elements/1.1/"
   xmlns:cc="http://creativecommons.org/ns#"
   xmlns:rdf="http://www.w3.org/1999/02/22-rdf-syntax-ns#"
   xmlns:svg="http://www.w3.org/2000/svg"
   xmlns="http://www.w3.org/2000/svg"
   xmlns:sodipodi="http://sodipodi.sourceforge.net/DTD/sodipodi-0.dtd"
   xmlns:inkscape="http://www.inkscape.org/namespaces/inkscape"
   version="1.1"
   id="svg2"
   height="281.8125"
   width="281.8125"
   inkscape:version="0.91 r13725"
   sodipodi:docname="south.svg">
  <sodipodi:namedview
     pagecolor="#ffffff"
     bordercolor="#666666"
     borderopacity="1"
     objecttolerance="10"
     gridtolerance="10"
     guidetolerance="10"
     inkscape:pageopacity="0"
     inkscape:pageshadow="2"
     inkscape:window-width="1301"
     inkscape:window-height="744"
     id="namedview183"
     showgrid="false"
     fit-margin-top="0"
     fit-margin-left="0"
     fit-margin-right="0"
     fit-margin-bottom="0"
     inkscape:zoom="0.472"
     inkscape:cx="140.90625"
     inkscape:cy="140.90625"
     inkscape:window-x="65"
     inkscape:window-y="24"
     inkscape:window-maximized="1"
     inkscape:current-layer="svg2" />
  <metadata
     id="metadata364">
    <rdf:RDF>
      <cc:Work
         rdf:about="">
        <dc:format>image/svg+xml</dc:format>
        <dc:type
           rdf:resource="http://purl.org/dc/dcmitype/StillImage" />
        <dc:title></dc:title>
      </cc:Work>
    </rdf:RDF>
  </metadata>
  <defs
     id="defs362" />
  <g
     id="g4311"
     transform="matrix(0.5625,0,0,0.5625,0.28125,0.28125)">
    <circle
       cx="250"
       cy="250"
       r="250"
       style="fill:none;stroke:#000000"
       id="circle4" />
    <path
       id="path6"
       d=""
       inkscape:connector-curvature="0" />
    <path
       d="m 396.18344,121.07584 0.34503,2.79651 0.55922,2.4638 0.5484,1.50288 0.9078,2.46701 2.29426,1.24903 1.2145,0.32248 1.7323,1.70798 0.69007,-0.41898 1.26992,-1.19273 2.07004,1.34001 0.30476,-0.39777 1.66699,1.20212 -0.55247,0.88475 3.91475,2.89579 -0.43251,1.95916 0.33304,1.67341 -0.96843,1.49565 -0.29686,2.08166 0.72309,1.96464 -1.271,3.59831 0.86219,0.31249 1.32894,1.13881 2.05528,1.05629 1.33624,1.31656 0.0188,1.23728 -0.82816,1.24322 0.0546,1.91967 -0.84071,0.81811 -0.10787,1.30992 -6.38413,-5.1201 -3.69974,10.23472 1.0678,4.29939 1.1788,3.62504 -6.10007,-2.97742 -7.41548,-5.97926 -1.64913,-3.14979 -13.51805,-8.43868 -0.59429,-0.0662 -1.54594,-2.74506 -2.21041,-1.39064 -2.26784,-0.5893 -1.88834,-0.2765 0.33332,-2.3393 1.39346,-2.73012 2.13524,-2.419 0.60384,-1.33683 2.01053,-2.3586 1.22691,-0.87772 2.63016,-0.98671 1.53162,-0.79429 1.02359,-2.18189 0.30103,-1.92968 -0.75947,-1.75971 -0.45371,-2.47692 -0.40588,-2.39836 0.35215,-0.54431 1.40022,-0.61181 -0.38068,-3.62492 -0.27135,-2.47795 -1.39151,-2.94873 0.47139,-0.39712 1.58148,0.43446 1.03315,0.65181 1.33818,0.36315 z m -13.66419,-8.84376 -0.99065,-0.19763 -0.5115,-2.79701 1.72764,-0.46865 1.19575,0.11815 1.15456,1.78792 -1.44219,-0.12223 -0.74945,0.43407 z"
       id="path8"
       inkscape:connector-curvature="0" />
    <path
       id="path10"
       d=""
       inkscape:connector-curvature="0" />
    <path
       id="path12"
       d=""
       inkscape:connector-curvature="0" />
    <path
       d="m 130.88337,296.02962 -1.53568,1.38893 -1.70589,-0.62733 -1.09533,0.69369 -1.80755,1.42662 -5.30236,-8.03297 1.75597,1.13559 2.62681,2.02811 3.66912,0.4534 3.0541,-0.8778 z m -50.981421,-123.75426 2.26325,1.37966 0.509872,-3.62667 3.395977,-2.08356 0.637859,0.45114 6.760532,2.43067 2.607011,-0.91838 4.32818,0.56835 3.50521,-0.29866 0.78748,1.39885 -1.78743,7.30221 3.32067,-0.64441 3.60741,-1.2223 2.34936,-1.83928 2.29634,-4.2809 -0.10877,-3.57343 1.47885,-1.46532 2.03355,1.43481 0.49656,3.05734 -2.30153,3.33351 -1.81461,2.55428 -2.70944,5.41962 -2.79423,7.28494 0.0542,3.45153 0.28755,4.35994 1.11606,3.81457 -0.3747,1.19602 0.51844,2.61283 0.41799,2.12263 4.60995,1.40516 0.43601,2.89245 2.28661,0.79629 0.45072,1.99036 -1.0249,6.41591 -3.25252,4.27397 -4.92447,3.86889 -2.94306,1.35202 1.43326,1.95174 0.64637,3.19588 1.24878,1.64831 -0.90419,2.28699 -2.23814,2.15048 -2.88728,0.17738 -0.46241,1.62357 2.03675,3.52434 2.08313,0.0571 0.73716,-2.06607 1.58433,1.51424 -1.59762,2.62414 -0.71163,3.62479 1.52328,4.02594 0.4897,2.38547 -2.02703,1.49803 -0.65057,3.1569 0.91065,3.2355 3.49692,1.18298 2.38274,-0.69564 1.10084,3.87222 -1.19259,3.86166 1.2617,5.28912 -0.83893,2.80322 0.30424,2.31203 2.95863,3.28102 2.52262,1.14269 -0.868,0.41693 -1.99927,0.77405 -4.45121,3.13032 -2.10839,-1.40711 -1.76914,-2.65908 -0.96993,1.28215 -1.46598,-0.69956 -2.68333,-3.55635 0.29661,-2.80941 -0.89922,-2.76505 -1.35856,-1.59637 -0.94012,-3.92718 -2.186577,-5.35817 -1.452032,-1.91875 0.44973,-1.44081 -0.993043,-1.16908 -1.322735,0.0977 -0.21901,-2.09121 -1.66636,-0.55461 -2.794602,-3.70973 0.403563,-1.46891 -2.717535,-4.06706 -1.449568,-4.12515 -1.072809,-3.72233 0.638376,-2.45348 -2.373352,-2.94601 -1.577721,-3.30915 0.612532,-3.8425 -1.398067,-2.97905 -0.196486,-4.66288 -1.372683,-3.33574 -0.88339,-0.13957 -3.567746,-5.27027 0.08858,-4.96149 -1.489547,-3.26976 -0.245632,-3.99272 0.544397,-4.71664 1.11975,-3.68871 -1.207983,-0.77498 0.197817,-1.58196 -1.78508,-5.83505 2.453482,-4.03333 0.0083,-4.38057 -0.54969,-0.62586 1.578259,-4.90948 z"
       id="path14"
       inkscape:connector-curvature="0" />
    <path
       id="path16"
       d=""
       inkscape:connector-curvature="0" />
    <path
       d="m 200.46274,378.20124 1.17824,1.72459 1.04266,1.51959 -1.46328,0.23462 -0.95803,0.92371 -1.6048,-0.55457 -0.11663,-0.11637 -1.15699,-0.66832 1.29136,-0.71513 1.43524,-0.45283 -0.71178,-1.54848 -0.64189,-1.30685 z m -2.79285,51.95104 1.52063,0.56957 -0.1035,1.23251 -0.51425,0.93658 -0.12204,0.13126 -0.24686,0.81638 -1.34918,0.44588 -0.88431,-1.15766 0.16632,-1.04092 0.46661,-0.99215 z m 8.57953,-63.08686 1.70776,1.29796 1.30721,2.1396 0.77207,1.55399 0.8373,1.84876 -0.53468,1.42771 -0.61126,1.23408 -0.73417,1.22341 -0.86266,1.14526 -1.50594,0.36621 -1.52149,-0.78122 -0.84127,-1.43359 0.73832,-1.52128 -0.13803,-1.38518 -0.46039,-1.67768 -0.43181,-1.43675 -0.24845,-1.42214 -0.29847,-1.65579 0.40515,-0.14256 0.80898,-1.18625 z m -47.5419,40.6652 0.34868,-1.15765 -0.93123,-1.23119 1.51778,0.72861 1.20316,0.99721 -0.0134,1.25203 -1.15977,0.80735 -1.37537,-0.32139 z m 1.11761,4.12254 1.07996,-1.34589 0.015,0.53569 0.0148,1.18206 -0.60223,1.24887 -1.09096,-0.70979 z m -7.10355,-27.92087 0.84592,-0.85782 -0.12294,-1.30569 2.40119,0.47756 -0.55235,0.61318 -0.20227,1.25133 -0.482,1.14083 -0.0872,1.42756 -0.9921,0.70093 -1.73661,-0.10479 -0.57244,-0.92232 0.8255,-1.08358 z m 15.46787,-30.20947 1.42746,1.35704 0.9878,1.38098 0.85396,1.37937 -0.61422,1.28027 -0.34441,1.42082 -1.13537,0.91533 -0.82253,-1.55432 -0.53365,1.31275 -0.44775,1.26965 -1.54391,-0.25669 -1.37805,-1.15231 -0.36413,-2.05494 0.2052,-0.9137 1.11692,-0.81568 -1.30925,-1.80419 -1.08609,-1.20109 -2.46423,-2.4864 -0.86743,-1.97393 0.45357,-1.3018 1.62903,0.74221 1.32769,1.00019 1.74585,1.09728 1.58466,1.1224 z m -5.62978,-31.59143 -0.15228,1.15615 -1.45032,0.0394 -0.96669,1.06006 -0.42124,1.44895 -0.39953,1.55206 0.0487,1.48416 0.78639,1.52185 1.00528,1.27876 1.44673,0.79553 -0.30232,1.40584 -0.99829,1.06586 0.17807,1.62928 0.10634,1.5842 0.40453,2.01048 0.82218,1.40143 1.51519,1.11216 1.44334,0.64671 1.55826,0.16493 1.69061,0.50318 1.48503,1.05245 1.20762,1.13257 1.3393,1.14815 1.36991,0.83104 1.27179,1.09257 2.51349,3.08615 1.25523,1.09768 1.08657,1.29628 1.31219,1.15823 1.23375,1.88127 0.57035,1.69614 0.35983,1.43911 -0.77618,1.19133 0.59521,1.40391 0.43735,1.4129 -0.11066,2.01526 -0.53233,1.22938 -0.25318,1.36565 -0.27041,1.41455 0.75703,1.66923 -0.89139,1.02394 -1.20253,0.91601 -0.66668,1.16198 -0.94359,1.02542 1.51887,0.84444 1.4314,-0.42354 1.53763,0.11605 1.51785,0.62779 0.45432,1.44604 -1.21173,0.66566 0.19041,1.43711 1.41755,1.07374 1.36235,1.00565 1.68254,0.25783 1.38949,0.84435 1.82787,0.37577 1.44271,-0.50064 1.7005,0.004 1.646,0.31296 1.79475,0.22147 1.59302,-0.39087 1.91945,0.0454 1.60472,0.39804 1.74407,0.53021 1.6696,1.22688 1.1731,1.05297 -0.39077,-1.38196 0.0123,-1.31105 0.0911,-1.41182 0.47863,-1.29843 0.37068,-1.30477 1.33595,-0.55477 1.61902,0.0527 1.51248,0.52416 -0.30085,-1.63643 0.3994,-1.26026 1.53553,-0.39762 1.00153,-1.01375 1.01071,-0.98165 1.2786,-0.67886 1.40137,-0.79843 0.95027,-1.03108 -0.71412,-1.3089 -0.53712,-1.3206 -0.22623,-1.42067 -1.51617,0.27388 -1.48113,0.77053 -1.51006,0.20747 -0.6047,-1.37207 -0.66823,-2.84193 0.16517,-0.88015 1.02827,-1.07193 1.31647,-1.07897 0.90566,-1.24378 0.96289,-1.23225 0.66009,-1.58632 1.28636,-0.75525 1.31858,-0.57742 0.67822,-0.3181 1.58396,-0.15235 1.50969,-0.50712 1.2958,-0.72051 1.31629,-0.85413 1.23007,-0.84207 1.61834,-1.10105 1.11025,-1.21239 1.20281,-1.03573 0.52807,-1.50793 -1.15923,-1.08561 0.6022,-1.5898 0.97213,-1.14984 1.41088,-0.60644 1.53796,-0.72937 1.52625,-1.03372 1.31906,-1.37911 1.02732,-1.75271 1.21762,-0.90284 1.58233,0.57119 0.34197,1.46269 1.55344,0.52092 0.44777,-1.45195 1.11992,-1.37503 1.36746,0.76095 -0.096,1.54727 1.51984,0.66551 1.94974,-0.17976 1.8315,0.0666 1.4142,0.71967 -0.074,1.75394 1.94568,-0.75854 1.61531,-0.17421 1.7127,0.0581 1.69518,0.0769 1.76239,-0.30899 1.7541,0.0639 1.55181,-0.2732 1.51762,-0.90669 0.43664,1.3866 1.63193,0.17381 -0.11873,2.13993 -0.0921,1.60768 1.83293,0.0649 1.47027,-1.05244 1.91119,-0.23092 1.4609,1.15279 -0.46369,1.54491 1.92407,-0.64126 1.58499,0.43118 1.48467,0.79197 1.17073,0.91044 0.94086,1.2854 1.03097,1.07557 -0.44831,1.42994 -0.17005,1.44086 1.66721,0.37503 1.32813,0.88355 1.14702,0.98568 1.16604,0.92784 1.40873,0.50386 1.39456,0.63689 1.73416,0.0599 1.46863,0.41408 1.273,0.72679 1.62931,0.0232 2.37402,-0.9029 1.66649,-0.28929 0.40561,1.51088 -0.88334,1.32254 -0.0859,1.49994 1.14601,0.89925 -0.69496,1.60555 -0.34026,1.39012 1.63598,0.52248 1.85132,-0.62373 1.33032,0.58324 2.00655,0.40728 1.22186,0.81167 1.56403,0.93428 1.35456,0.46129 1.44873,0.48789 1.34008,0.50312 0.1401,1.38545 1.9206,0.41114 1.45583,0.27425 0.46745,1.22765 1.38288,0.60916 1.49671,-0.40262 1.53745,0.60089 1.20427,0.74049 1.12029,1.06665 0.74679,1.1136 0.15743,1.29811 -0.002,1.43831 -0.79612,1.51832 -1.71034,0.79158 -1.04727,1.65793 -0.92438,1.18589 -0.13008,1.70969 -0.95225,1.21942 -0.93412,1.3954 -0.0376,1.28541 0.96571,0.79045 1.85241,0.64121 -0.75962,1.45063 -0.37669,1.37851 -0.40812,1.31515 -0.26903,1.3166 0.031,1.26641 -4.34431,1.83738 -1.07003,0.14068 -1.89606,0.1877 -1.08373,-0.92918 -1.59705,-0.61199 -1.65106,0.45713 0.11029,1.23159 -1.66151,0.1199 -1.58937,-0.29408 -1.76264,-0.21082 -1.31334,1.00838 -0.41223,1.24997 0.72494,1.09345 1.64262,0.37047 1.56171,0.16476 1.29188,0.43646 1.19168,0.54616 1.46481,0.11625 2.0064,0.36915 0.33476,0.67685 -0.002,1.29282 0.31774,1.10925 0.44805,1.12868 1.52045,0.46087 1.47433,0.24409 1.36319,0.72346 0.77137,1.12843 0.54119,0.98908 1.17788,0.61452 0.51683,0.67593 0.36438,0.88097 -0.79647,1.25055 0.01,1.10787 0.0246,1.20717 -0.76754,1.34303 0.71567,0.91037 2.35158,0.69268 -1.28597,0.43682 -2.1118,0.50942 -1.25061,0.97584 -0.87654,1.12109 -0.14068,1.16627 -0.96275,1.16562 -0.70863,1.08088 -0.064,0.76301 -0.82567,0.93656 -1.37044,0.75368 -0.16756,1.08079 -0.84263,1.19391 -0.24304,1.09795 -1.36552,1.0359 0.62635,0.95409 0.7383,0.79048 0.34617,0.94634 1.40504,1.92491 -1.11685,0.60706 -1.70925,0.60664 -1.87625,0.40524 -3.34571,0.74566 -1.07294,0.95209 -0.96702,0.89913 -0.77668,1.1617 -0.75233,1.17373 -0.0694,1.08101 0.1164,0.97534 -1.21467,1.08514 -0.25746,0.93741 -1.55792,0.47519 -1.56167,0.063 -1.79512,0.2083 -1.25893,0.97616 -1.5927,0.21912 -2.23142,0.59553 -1.87783,0.82179 -1.14407,0.89278 -0.21906,1.04876 -0.0966,0.95979 -1.05108,0.76951 -1.60498,0.42167 -1.70458,0.55171 -0.97225,0.87329 -1.30706,0.58078 -1.5114,0.38912 -1.57122,0.39131 -0.95763,0.82716 -1.2985,0.88054 -1.48124,0.6262 -1.7599,0.59682 -1.25485,0.63698 -1.28189,0.57677 0.4468,0.99872 0.67644,0.73662 -1.5209,-0.18039 -1.07874,-0.7198 -1.25152,-0.59616 -1.22581,-0.43571 -1.62542,0.0189 -1.70541,0.55541 -2.07014,0.51575 -1.36825,0.41958 -2.13463,0.41458 -1.51363,0.31129 -2.20886,0.27078 -1.93477,0.10945 -1.50426,-0.47499 -0.0845,-0.793 -1.34889,-0.47368 -1.9489,-0.29669 -1.99983,-0.36519 -2.17908,-0.21332 -2.23267,-0.20716 -1.69226,-0.2669 -1.77874,0.009 -0.83649,0.73285 -1.51795,-0.57992 -1.31903,-0.68482 -1.4386,-0.53482 -1.8805,-0.27063 -1.77837,-0.33925 -0.7901,-0.90841 -1.6982,-0.63838 -1.1166,-0.88094 -1.59588,-0.50371 -1.65642,-0.1368 -1.52497,-0.32317 -1.70661,-0.19454 -1.66371,-0.43908 -1.50594,-0.5743 -1.31312,-0.79026 -1.29951,-0.72024 -0.74866,-0.85419 0.43448,-0.84059 0.93079,-0.65052 0.87146,-0.91474 0.66401,-0.73124 0.82522,-0.85645 1.66325,-0.0851 0.86856,-0.73198 1.60098,-0.28892 0.65857,-0.89235 0.88915,-0.82445 0.88168,-0.69032 0.53814,-0.99763 0.34561,-0.92968 0.19164,-1.16337 0.057,-0.98168 -0.45261,-1.10214 -0.10223,-1.01875 -0.32053,-1.00203 -1.58477,-0.60181 -0.13559,-1.21545 1.57163,-0.20353 1.32312,-0.43475 1.55895,0.0495 0.70761,-1.53428 0.14852,-1.32132 0.31726,-1.04127 0.36115,-1.04844 -0.89007,-1.02931 -0.29322,-1.22684 -0.47737,-1.14072 -0.6394,-1.05705 -0.68061,-1.02245 -0.67433,-1.04286 -0.99042,-1.12398 0.0898,-1.49219 -1.12163,-0.91184 -0.0137,-0.24378 -0.0315,-0.94289 -1.43035,0.4291 -0.54107,-1.17882 -0.32278,-0.90071 -0.01,-0.0301 -1.22832,1.4904 -0.21629,-1.12784 -0.10343,0.0774 -0.96539,0.68798 -0.0362,-0.0528 -0.0344,-0.0395 0.1947,-1.34256 -1.28014,0.86805 -0.20154,0.1047 -1.53426,-0.12979 0.14008,-0.76676 0.0909,-0.3862 0.22875,-1.10423 -0.31366,-1.15974 0.13499,-1.15518 -0.4002,-1.26793 -1.56289,-0.0488 -0.42709,-1.30728 0.51731,-1.06548 -1.55453,-0.13035 -1.54331,-0.29232 -1.74526,0.57248 0.77764,1.14921 0.0473,1.25998 -1.04073,0.89509 0.15296,1.15401 -1.46246,0.7517 -1.4175,0.60075 -1.3067,0.51084 -1.21238,0.76508 -0.14825,1.08635 -0.72356,0.90628 -0.19477,1.15666 -0.97782,-1.06094 -1.54087,-0.68975 0.42934,-1.12574 -1.70978,-0.31786 -1.93505,-0.22114 -1.46946,0.0575 -1.24125,0.70097 -0.32111,1.01007 -0.24418,1.14816 0.87654,1.12851 0.55325,1.10821 0.80801,1.11031 -0.70746,0.92829 -0.0965,1.16771 -0.4817,0.99173 -2.92819,2.06284 -0.0841,-0.43244 0.24368,-1.00567 -1.40955,-0.76728 -1.47224,-0.7136 0.76791,-1.10236 -1.29686,-0.7895 -1.50051,-0.51692 -1.64602,-0.43892 -1.77654,-0.34312 -1.22907,-0.89855 -1.21946,0.41894 -1.0186,0.63532 -1.35486,0.15031 -1.40781,-0.78197 0.76503,-0.74479 -1.58107,-0.96554 -1.55814,-0.68089 -0.87859,-1.10311 -1.08582,-1.00855 -1.56138,-0.96072 -1.33854,-0.78663 -1.39856,-0.93771 -0.1606,-0.69355 -0.0279,-0.61426 -1.18183,-1.25005 0.10984,-1.19453 -0.6133,-1.19349 -1.01371,-1.15056 -0.0822,-1.19778 -0.0819,-1.31118 -0.5508,-1.24438 -0.29427,-1.29066 -0.25988,-1.32708 -0.43048,-1.24912 -1.36433,-1.07263 -0.82226,-1.21145 0.70802,-1.01981 -0.84114,-1.2271 -1.51964,-1.28656 1.22997,-0.34551 1.41608,-0.0257 1.33166,-0.29552 -1.22613,-1.19861 1.51681,-0.70898 0.51102,-1.06743 1.17646,-0.70171 -0.1399,-1.27753 -0.59477,-1.31498 0.34871,-1.24737 0.76279,-0.96006 0.95614,-0.89173 -1.63361,-1.10224 -1.46936,0.0465 -1.51272,-0.10278 -0.54526,1.04754 -1.59108,-0.0152 -1.53084,-0.33117 -3.03876,-0.73047 0.67236,-0.55205 0.47684,-1.19228 0.0426,-1.34902 0.90308,-0.87274 1.42725,-0.46243 1.50994,0.2118 0.61928,-1.12487 -0.1299,-1.42188 -0.2871,-1.61815 0.0113,-1.35261 1.30635,-0.42989 0.26213,-1.34242 -2.48602,-2.4412 2.06676,0.28311 1.21898,-0.61227 0.27835,-1.31158 1.8675,0.23178 0.85182,-0.99342 1.10538,-0.69812 1.45886,-0.40627 -0.83966,-1.57868 -0.98613,-1.23748 1.99401,0.24454 0.56054,-1.32848 1.41337,-0.18281 1.58009,0.41787 0.59425,-1.24163 0.0416,-1.36677 -0.0587,-1.47738 0.50538,-1.27587 0.76526,-1.35018 0.64051,-1.30712 0.19905,-1.35043 -0.39774,-1.40267 -1.03374,-1.54967 -1.29419,-1.24644 -1.4252,-1.04019 -1.4695,-1.00472 -1.43836,-1.02755 -1.2728,-0.94165 -1.19368,-1.22348 -1.03084,-1.3554 -0.57577,-1.60892 -0.74593,-1.68712 -0.92837,-1.43612 -1.42338,-1.27011 -1.22711,-1.20702 -0.68432,-1.95183 -0.15584,-1.48846 -0.22135,-1.85437 0.019,-1.6991 0.25572,-1.74426 -0.59727,-1.86781 0.0347,-1.46532 0.21465,-1.47146 1.18428,-1.06233 0.12861,-1.68698 0.55006,-1.3304 0.93017,-1.14031 0.49857,-1.56063 0.16081,-1.65048 0.95115,-1.09638 1.46341,0.48189 0.14703,1.55799 z"
       id="path18"
       inkscape:connector-curvature="0" />
    <path
       d="m 397.48025,376.97258 -1.10482,1.94899 -0.46941,2.28721 -0.67567,0.37465 -1.60718,0.097 -0.22972,-3.23996 1.8959,-0.92454 1.4658,-0.35402 z"
       id="path20"
       inkscape:connector-curvature="0" />
    <path
       d="m 280.99463,497.76582 -3.41576,0.36378 -1.61091,0.22247 -2.33295,0.2947 -1.9904,0.18546 -1.2401,-0.16206 0.7824,-0.1777 -0.38602,-0.23687 1.33084,-0.0372 1.50331,-0.43682 0.68626,-0.0578 1.91569,-0.22218 2.75102,-0.0232 1.09117,0.0771 2.70208,-0.13175 0.38839,0.0546 z m -4.02954,0.77569 1.13753,-0.13328 1.60112,-0.21396 3.14519,-0.3786 2.19135,-0.29725 2.7e-4,0.0136 1.62242,-0.23955 2.1268,-0.37663 3.10569,-0.49924 2.01942,-0.34842 1.93793,-0.35774 3.47357,-0.66732 2.83034,-0.55796 1.30522,-0.26838 -2.4e-4,5e-5 -25.82048,4.25043 z m 77.64425,-21.4801 1.38733,-0.65427 2.21065,-1.08061 -0.3252,0.0975 0.38032,-0.25802 2.42553,-1.24361 1.64879,-0.88897 2.85122,-1.49768 1.82796,-1.05569 1.83097,-1.06908 0.62827,-0.57576 0.88289,-0.51088 0.81218,-0.62352 0.66434,-0.57286 2.01204,-1.25827 1.75893,-1.14882 4.04752,-2.35418 1.77015,-1.1185 1.10545,-0.44706 -1.01632,0.77921 0.009,0.10655 0.80174,-0.38278 1.03313,-0.41945 1.4393,-0.77492 3.3351,-2.01039 1.5109,-0.92313 0.94078,-0.55344 2.26824,-1.51359 0.60315,-0.3987 1.91689,-1.34544 1.73917,-1.23003 0.73552,-0.53681 -2.1e-4,1.5e-4 -21.88267,14.34962 z"
       id="path22"
       inkscape:connector-curvature="0" />
    <path
       id="path24"
       d=""
       inkscape:connector-curvature="0" />
    <path
       id="path26"
       d=""
       inkscape:connector-curvature="0" />
    <path
       d="m 437.95445,149.3021 0.57207,-3.6564 -0.44527,-1.98729 1.65497,1.88553 1.16213,-0.77813 1.42523,1.65542 -0.0585,1.28089 0.45713,1.24532 -0.1652,0.95591 -0.79693,-0.0848 -1.38981,0.4266 -1.2348,0.0509 z"
       id="path28"
       inkscape:connector-curvature="0" />
    <path
       id="path30"
       d=""
       inkscape:connector-curvature="0" />
    <path
       d="m 350.02104,61.992816 -3.31601,-0.982026 -0.84017,-2.02531 0.56186,-5.242408 -0.7738,-0.759469 -0.0915,-1.143667 -1.34107,-1.274626 -1.18411,-1.081156 0.55609,-0.945809 1.37312,0.257305 0.8367,-0.624808 1.93172,0.52618 0.87255,-0.29693 1.32472,-0.1 1.39936,0.540876 2.95194,2.38296 -0.1632,0.640122 0.84584,1.625171 -0.79364,0.561056 0.39071,0.755941 -1.95499,0.606129 -1.24467,0.20661 -0.82418,1.138275 0.005,1.504857 z"
       id="path32"
       inkscape:connector-curvature="0" />
    <path
       d="m 328.40582,46.459149 -2.75316,-1.40401 -1.92708,-0.477786 -1.48371,0.13863 -1.81141,-0.979591 -0.65807,-0.914822 -1.81368,-0.970511 -0.16793,-1.30467 1.19373,-0.584594 -0.0408,-0.725498 3.36334,-0.786642 0.67749,-1.191397 1.13672,-0.159087 1.94433,0.833975 1.70972,0.107039 0.56759,-0.332549 3.13909,0.101924 0.77525,-0.351918 3.7233,0.428131 2.17486,0.465889 0.98428,0.694962 2.52016,0.87146 -0.30734,0.807607 0.52639,1.063218 2.20694,2.076838 0.10992,1.011496 4.52093,2.149154 -0.11022,1.373695 -0.87255,0.29693 -1.93172,-0.52618 -0.8367,0.624808 -1.37312,-0.257305 -3.48565,-1.285284 -1.8417,-0.807236 -1.31195,-0.09702 -1.76777,-0.746501 -7.03449,-2.127011 -0.17911,1.179528 z"
       id="path34"
       inkscape:connector-curvature="0" />
    <path
       id="path36"
       d=""
       inkscape:connector-curvature="0" />
    <path
       id="path38"
       d=""
       inkscape:connector-curvature="0" />
    <path
       id="path40"
       d=""
       inkscape:connector-curvature="0" />
    <path
       id="path42"
       d=""
       inkscape:connector-curvature="0" />
    <path
       id="path44"
       d=""
       inkscape:connector-curvature="0" />
    <path
       id="path46"
       d=""
       inkscape:connector-curvature="0" />
    <path
       d="m 86.071048,167.94479 -3.395977,2.08356 -0.509872,3.62667 -2.26325,-1.37966 -3.912734,1.8251 -1.578259,4.90948 -1.854504,2.00408 -2.225395,-3.9646 -2.337221,-2.69872 0.156786,-4.00647 -1.727301,-0.28101 -0.842383,-2.1466 -1.761665,-1.18386 1.10407,-5.03831 -1.625099,-1.81416 0.468621,-1.63395 -0.669871,-0.81181 0.86371,-2.53248 -0.287593,-2.82325 -0.113699,-2.39163 0.496071,-1.58446 -2.875965,-3.14336 2.115405,-1.45652 1.46424,-1.25027 0.5763,-1.4681 2.466355,-3.25753 1.493806,-2.36102 3.904785,-3.40389 -0.21113,2.60461 0.440899,0.95994 -0.10395,2.32297 3.519052,0.58923 3.503115,-1.78425 1.327929,0.42344 2.181646,-0.70721 1.392965,0.13892 2.007106,-1.26537 1.953163,-0.13492 0.31188,1.84854 0.720712,0.61011 0.184283,1.42967 -0.933866,0.61077 1.665936,3.23083 6.257942,-3.37256 -0.263932,2.25457 0.510817,1.17581 1.912869,0.0119 1.043955,1.76274 -0.22343,3.08114 -0.679879,2.0265 0.606119,1.85731 -0.901737,1.2799 -0.220385,-1.0674 -3.268641,-0.15927 -2.963432,1.63925 -5.272317,4.29498 -0.924395,4.01472 0.276202,1.94809 -0.340998,5.00893 z"
       id="path48"
       inkscape:connector-curvature="0" />
    <path
       d="m 108.76405,188.93783 2.79423,-7.28494 2.70944,-5.41962 1.81461,-2.55428 2.30153,-3.33351 -0.49656,-3.05734 -2.03355,-1.43481 -1.47885,1.46532 0.24285,-2.46283 0.0549,-2.41662 -0.34573,-2.04896 -1.29837,-0.12331 -1.12847,1.17983 -1.24556,0.41864 -0.6272,-1.23872 -0.86728,-3.22242 -0.79112,-0.79263 -2.36795,0.11223 -1.20849,1.38738 -3.51551,1.08365 -0.59186,-5.0045 -1.262237,-1.47376 0.901737,-1.2799 -0.606119,-1.85731 0.679879,-2.0265 0.22343,-3.08114 -1.043955,-1.76274 -1.912869,-0.0119 -0.510817,-1.17581 0.263932,-2.25457 -6.257942,3.37256 -1.665936,-3.23083 0.933866,-0.61077 -0.184283,-1.42967 -0.720712,-0.61011 -0.31188,-1.84854 -1.953163,0.13492 -2.007106,1.26537 -1.392965,-0.13892 -2.181646,0.70721 -1.327929,-0.42344 -3.503115,1.78425 -3.519052,-0.58923 0.10395,-2.32297 -0.440899,-0.95994 0.21113,-2.60461 -3.904785,3.40389 -1.493806,2.36102 -2.466355,3.25753 -0.5763,1.4681 -1.46424,1.25027 -2.115405,1.45652 -1.527525,1.86878 -1.280586,0.71363 -0.12248,-4.92137 -2.136293,3.80624 -2.369746,2.06534 -1.101236,-0.72743 -1.746663,1.46735 0.480577,-1.85106 -1.524439,-0.47582 -1.15215,-1.68717 0.668373,-1.22058 -0.01879,-1.27022 1.569012,-2.38942 -0.25466,-1.36709 0.684071,-1.67615 0.221733,-1.56469 3.130676,-4.84458 2.268291,-2.56882 0.392337,-0.76562 2.512109,-2.0307 1.902718,-8.96083 0.20638,-1.27675 -0.246545,-1.22775 -1.120274,0.0479 0.310337,-2.01166 1.669759,-1.79466 0.526953,-0.1914 0.266298,-1.12394 -1.623228,1.11241 0.263753,-1.65989 5.615766,-4.51617 1.14885,-1.68356 0.665852,0.21356 0.300881,1.14667 0.621874,-0.76175 1.420582,0.196 2.399612,-1.90534 0.732282,-1.257555 2.413557,-2.252867 1.366292,-1.329086 0.571283,-1.384085 2.404188,-2.27375 -0.06368,-0.443174 -2.630223,1.574882 -0.092,-1.356763 0.513757,-1.8278 -1.23763,0.298424 0.638676,-0.641714 2.240213,-1.25787 2.372918,-1.032899 1.064352,-1.209493 2.412447,-1.878255 3.886303,-3.207385 1.447832,-1.687281 -0.256703,-0.446249 1.753228,-1.130976 0.628145,0.123726 -0.70957,1.35883 1.057082,-0.282593 0.493847,0.742759 -1.1359,1.440491 -1.001316,2.523375 0.598214,0.83632 0.01576,1.090793 1.861068,0.08031 1.651477,-0.793472 0.46879,-0.734303 1.105552,-0.705093 1.644492,-1.304566 1.25568,-1.302939 1.88899,-0.771488 0.87059,-0.529293 1.87713,-0.74073 0.41715,-0.701142 -0.49577,-0.233469 0.49856,-0.93889 1.38586,-0.46746 1.73439,-1.079097 1.94866,-0.409579 1.47482,-0.181044 1.25483,-1.225295 0.79243,-0.254535 0.35961,0.523134 1.7849,-0.958068 1.59378,-1.608067 1.50834,-2.399152 2.68493,-3.25293 1.29226,-0.635425 0.61926,1.037061 1.22312,3.732702 1.94029,-0.336893 -0.20778,1.814138 -3.18229,3.338881 1.04967,0.373924 6.65707,-2.062394 -0.23335,2.7561 3.16161,-2.862388 4.75198,-0.613867 6.30947,-0.278834 1.73526,1.115882 -0.82884,1.786959 4.72826,-2.184468 7.66575,-0.455327 6.0968,-1.49766 5.81142,1.191204 4.94634,2.383778 3.11663,0.334451 3.55448,-0.438377 1.42316,0.738843 1.06411,3.740186 0.53497,1.806866 -2.0545,5.53118 -2.24639,2.440774 -6.04396,5.542083 -2.74858,4.264703 -3.08146,3.516691 -1.00796,0.26265 -1.17232,2.75722 0.21678,6.50496 -1.0874,5.73019 -0.38992,2.47041 -1.21239,1.69173 -0.57224,5.05137 -3.71292,5.70865 -0.45692,4.0261 -2.95136,2.35875 -0.72842,2.48695 -4.03023,1.02073 -5.65025,3.0542 -2.3944,2.44297 -3.9031,2.35673 -3.81026,4.4031 -2.44753,4.8139 -0.0918,3.04722 0.88342,1.92983 -0.0307,4.14547 -0.45636,2.1757 -1.96548,3.00374 -2.33411,8.28616 -2.16209,4.24553 -1.73446,2.72819 -0.54931,4.34957 -1.47403,3.13779 -1.39338,-1.85475 0.89829,-2.46302 -2.41406,-1.87325 -2.92641,-1.04777 -3.75018,-0.97939 -1.10437,0.66784 -3.77578,-1.43418 z"
       id="path50"
       inkscape:connector-curvature="0" />
    <path
       id="path52"
       d=""
       inkscape:connector-curvature="0" />
    <path
       id="path54"
       d=""
       inkscape:connector-curvature="0" />
    <path
       d="m 413.05038,183.33682 0.32675,1.0865 0.0772,2.6909 1.53971,6.45181 1.0046,1.42894 -0.52805,1.173 -0.18752,2.83838 1.81161,2.45465 0.94144,3.10827 -4.90535,-1.11063 -3.61863,0.29154 -2.0008,1.43794 -1.43955,0.54759 -1.60722,-1.02741 -1.28468,1.2128 -0.8057,0.82637 -2.14214,-0.69898 -2.16424,-2.05281 -0.86814,-2.06206 -0.98934,-1.38137 -1.76789,-0.30166 -1.48837,1.11616 -1.85294,-0.004 -2.17833,0.46402 -2.24161,-1.19693 -0.0748,-1.71985 1.25708,-1.9461 -0.25487,-4.62378 -0.57647,-1.11103 4.31634,-10.1706 3.05438,2.0739 4.926,-12.04621 2.33251,1.61045 5.11585,2.46959 0.59625,2.28473 2.40121,0.24142 0.89161,0.73092 1.93779,0.63915 0.42092,0.68911 z"
       id="path56"
       inkscape:connector-curvature="0" />
    <path
       d="m 397.35124,82.635579 2.87851,1.618662 0.6489,-0.211281 0.56949,0.411887 0.84766,1.09637 4.29399,1.911255 1.42998,0.03796 1.73377,0.370961 -0.33907,-1.056415 0.93035,0.43568 3.17282,2.400072 3.0132,1.148054 2.17887,-0.784571 1.5325,0.305193 1.94159,1.15759 0.42677,1.253296 1.8747,2.868169 0.0612,0.95918 -0.45721,0.574278 0.22495,0.895808 1.08893,1.552944 2.35088,2.971819 1.67094,2.37701 0.0344,0.81808 2.01435,3.01766 1.22736,2.16095 0.7159,2.16761 2.15944,2.97453 0.43778,1.23596 -0.97218,-0.60428 -1.88163,-1.74903 -2.22744,-2.23189 -1.12704,-0.74339 -0.48275,0.23506 -0.98668,-0.7556 -1.17791,-1.54957 -3.51434,-1.53698 -1.41424,-1.39631 -0.44477,-0.14389 -1.05007,0.8159 -2.34566,-2.33896 -2.34477,-2.03013 -2.01492,-2.47426 -2.65982,-2.813784 -1.83468,-0.433829 -1.39847,0.396378 -0.45097,1.596751 -2.16558,-1.623058 -2.27515,-1.971654 -2.18036,0.04286 -2.07549,1.289066 -0.28472,-1.000117 -0.0322,-1.298615 -1.52018,-1.841654 -1.17702,-2.138299 -0.22233,-1.106659 -1.56745,-2.34363 0.34022,-0.58105 -0.28207,-1.268867 0.38269,-1.757307 0.86882,0.0666 z"
       id="path58"
       inkscape:connector-curvature="0" />
    <path
       id="path60"
       d=""
       inkscape:connector-curvature="0" />
    <path
       id="path62"
       d=""
       inkscape:connector-curvature="0" />
    <path
       d="m 119.43656,290.87856 5.30236,8.03297 1.80755,-1.42662 1.09533,-0.69369 0.38983,1.89855 -0.68999,2.23847 -0.88663,0.53324 -1.16501,0.50028 -1.91899,-0.0818 -2.03612,0.94029 -3.39518,-0.15524 -2.9619,-0.35509 -4.99813,-1.72905 1.81379,-0.55876 3.9019,0.18941 3.02446,-0.67887 -0.28642,-2.35556 -1.11876,-2.8951 0.59951,-2.8098 z m -49.105503,-113.82914 2.225395,3.9646 1.854504,-2.00408 0.54969,0.62586 -0.0083,4.38057 -2.453482,4.03333 1.78508,5.83505 -0.197817,1.58196 1.207983,0.77498 -1.11975,3.68871 -0.544397,4.71664 0.245632,3.99272 1.489547,3.26976 -0.08858,4.96149 3.567746,5.27027 0.88339,0.13957 1.372683,3.33574 0.196486,4.66288 1.398067,2.97905 -0.612532,3.8425 1.577721,3.30915 2.373352,2.94601 -0.638376,2.45348 1.072809,3.72233 1.449568,4.12515 2.717535,4.06706 -0.403563,1.46891 2.794602,3.70973 1.66636,0.55461 0.21901,2.09121 1.322735,-0.0977 0.993043,1.16908 -0.44973,1.44081 1.452032,1.91875 2.18658,5.35817 0.94012,3.92718 1.35856,1.59637 0.89922,2.76505 -0.29661,2.80941 2.68333,3.55635 1.46598,0.69956 0.96993,-1.28215 1.76914,2.65908 2.10839,1.40711 4.45121,-3.13032 1.99927,-0.77405 -1.58432,1.25565 -0.25274,1.58138 -0.66245,2.60346 2.02193,3.52814 -0.63006,0.69314 -2.62183,0.52379 -3.56886,-0.67191 -3.39597,-0.0121 -2.09737,-1.65186 -1.02944,-2.45811 -2.45801,-1.44016 -4.384588,-5.60835 -1.584681,-4.04786 0.03021,-4.53273 -3.301909,1.68212 -0.36083,-4.77807 -3.041393,-6.42906 2.822951,-0.78954 -3.303239,-8.31655 -1.851291,0.30757 1.977107,5.0007 -1.482963,0.67867 -2.367474,-5.62934 -2.999335,-7.20879 -0.373971,-3.32449 -2.403188,-2.89723 -2.209335,-3.82923 0.82355,-0.96669 -1.460742,-6.99389 -1.052364,-7.1264 -1.296254,-6.20007 -2.686619,-4.85751 -0.428394,-3.56474 -1.907436,-4.11815 -0.09733,-5.57587 -1.769576,-7.19926 -1.323702,-7.9577 -1.206186,-8.42384 -1.488028,-5.4306 -1.548433,-4.28927 1.207619,-2.0324 0.401568,-2.33146 1.761665,1.18386 0.842383,2.1466 1.727301,0.28101 -0.156786,4.00647 z"
       id="path64"
       inkscape:connector-curvature="0" />
    <path
       id="path66"
       d=""
       inkscape:connector-curvature="0" />
    <path
       d="m 327.2393,57.285023 -1.88178,-0.541612 -2.83455,-1.329929 -2.66761,-0.726268 -4.99707,-0.904439 -3.00024,-0.0311 -4.28647,-0.102629 -0.80754,-0.258248 0.58383,-1.966968 0.44175,-0.211724 -0.009,-0.990389 -1.66143,-1.426731 -1.32075,-0.465948 -1.15038,-0.930286 1.04609,-0.844643 -0.28586,-1.222739 0.27425,-0.628277 0.66792,0.147721 0.36391,-0.941505 -0.27425,-0.5115 0.43725,-0.222783 1.58864,0.08791 -0.83885,-2.016734 -0.86682,-1.121201 0.41438,-0.656349 0.85047,0.02407 0.56427,-0.0688 1.12146,0.591422 3.21298,0.793017 0.82444,-0.435274 0.71153,0.220891 1.21846,0.06344 0.55647,1.080751 0.99158,-0.02033 1.73278,0.133225 1.81368,0.970511 0.65807,0.914822 1.81141,0.979591 1.48371,-0.13863 1.92708,0.477786 2.75316,1.40401 0.81976,3.519956 -1.90719,1.409796 -1.34463,2.349598 1.56171,2.63135 z"
       id="path68"
       inkscape:connector-curvature="0" />
    <path
       d="m 388.55267,90.997187 -0.43414,-0.402248 -2.19025,-0.874289 -2.18269,-1.586083 -1.76909,-0.776453 -6.05003,-3.233207 0.78001,-1.794012 -1.28984,-2.456522 -1.67542,-1.295169 -0.65872,-1.52197 -0.93575,-0.838612 0.10577,-0.675795 1.11837,-1.289477 1.95521,-1.477008 1.08514,0.524459 2.29782,-0.276843 1.40584,0.691551 2.01817,2.087187 2.55674,0.547574 0.38372,-0.80977 0.85053,-0.507055 0.59387,-0.879386 1.94474,0.122789 0.73386,-1.200714 0.75591,-0.074 0.48958,-0.885423 0.90397,-0.879813 2.8907,0.05085 0.14498,-0.610387 0.35575,-0.160995 -1.43451,-1.677697 0.0631,-0.607334 0.97162,0.466402 1.47793,2.196458 0.31786,1.577318 -0.0598,1.384243 1.95117,3.20314 -1.94122,-1.216977 -0.98261,-0.436883 -1.60317,-1.186286 -0.75273,0.61802 2.08327,2.583441 1.52549,1.320851 0.48604,1.270668 1.07395,2.313359 -0.56258,0.310488 -1.85622,1.378512 -0.86882,-0.0666 -0.38269,1.757307 0.28207,1.268867 -0.34022,0.58105 1.56745,2.34363 0.22233,1.106659 1.17702,2.138299 1.52018,1.841654 0.0322,1.298615 0.28472,1.000117 -0.41675,1.282159 -2.71514,-2.369883 -2.78616,-2.441076 z"
       id="path70"
       inkscape:connector-curvature="0" />
    <path
       d="m 445.47358,131.2066 -0.42542,2.93971 1.04796,1.48239 -0.96657,0.057 -1.1244,-0.35184 -1.2163,0.35594 -0.74339,0.68879 -0.46551,2.05435 -0.80456,0.422 -0.36496,2.08194 -0.93829,-0.005 -0.4061,1.57916 -0.42632,-0.15663 -0.55847,1.30435 0.44527,1.98729 -0.57207,3.6564 -0.12718,3.17793 -0.65474,1.25643 0.11635,2.26105 1.15113,3.2525 0.397,5.25726 -0.97493,-1.38982 -3.84474,-3.14708 -0.85486,-0.36045 -1.37388,1.17428 0.21952,1.94454 -1.64844,3.16363 -1.38138,2.78493 0.5639,1.27094 1.50601,3.07736 0.94826,0.16934 -0.98299,3.59318 -2.07819,-2.066 -0.51556,-2.81594 -0.56171,-2.30764 -2.01529,-2.44791 -0.0904,-2.22433 -2.08949,-0.59882 -2.19181,-2.49484 -0.52491,-2.27597 -1.80034,-1.89879 -1.43445,-1.10302 0.13096,-1.11795 -1.02334,-0.94121 -1.33624,-1.31656 -2.05528,-1.05629 -1.32894,-1.13881 -0.86219,-0.31249 1.271,-3.59831 -0.72309,-1.96464 0.29686,-2.08166 0.96843,-1.49565 -0.33304,-1.67341 0.43251,-1.95916 -3.91475,-2.89579 0.55247,-0.88475 -1.66699,-1.20212 -0.30476,0.39777 -2.07004,-1.34001 -1.26992,1.19273 -0.69007,0.41898 -1.7323,-1.70798 -1.2145,-0.32248 -2.29426,-1.24903 -0.9078,-2.46701 -0.5484,-1.50288 -0.55922,-2.4638 -0.34503,-2.79651 -10.39099,-6.3703 -1.33818,-0.36315 -1.03315,-0.65181 -1.58148,-0.43446 -0.31104,-1.22167 0.99065,0.19763 0.38416,-1.24538 0.74945,-0.43407 1.44219,0.12223 0.88599,0.84679 1.45606,-0.42301 1.9413,1.17611 0.0593,0.97465 1.21863,1.32159 2.45328,-0.59051 2.32558,-0.16482 1.06213,-0.37841 0.32534,-2.45538 1.99511,-1.81276 1.82575,-0.43008 2.4762,0.13812 0.52834,-0.62646 0.23487,-0.959 0.69196,-0.58327 0.0313,-1.66939 0.72222,-2.10937 0.8511,-1.21644 1.15897,-0.72296 0.3473,-1.443779 0.45097,-1.596751 1.39847,-0.396378 1.83468,0.433829 2.65982,2.813779 2.01492,2.47426 2.34477,2.03013 2.34566,2.33896 1.05007,-0.8159 0.44477,0.14389 1.41424,1.39631 3.51434,1.53698 1.17791,1.54957 0.98668,0.7556 0.48275,-0.23506 1.12704,0.7434 2.22744,2.23188 1.88163,1.74904 0.97218,0.60428 1.6463,3.74503 1.26537,1.52358 0.78406,0.28772 1.29307,1.42719 1.58065,0.97359 0.59673,1.76387 z"
       id="path72"
       inkscape:connector-curvature="0" />
    <path
       d="m 385.09505,110.67486 -1.15456,-1.78792 -1.19575,-0.11815 -1.72764,0.46865 -2.4046,-4.77844 3.10056,-0.0977 -1.03978,-2.67542 1.38651,-0.0367 2.52641,1.01811 0.50524,-1.10407 1.70336,2.4754 3.15343,1.9704 1.32865,-0.69997 0.76173,-1.6151 -0.0466,-2.42054 -1.45071,-2.642454 1.97778,-2.244638 -0.82395,-1.066669 -2.70162,-1.343806 -0.83955,-1.968119 0.39873,-1.010557 4.51855,2.757705 2.78616,2.441076 2.71514,2.369883 0.41675,-1.282159 2.07549,-1.289066 2.18036,-0.04286 2.27515,1.971654 2.16558,1.623058 -0.3473,1.443782 -1.15897,0.72296 -0.8511,1.21644 -0.72222,2.10937 -0.0313,1.66939 -0.69196,0.58327 -0.23487,0.959 -0.52834,0.62646 -2.4762,-0.13812 -1.82575,0.43008 -1.99511,1.81276 -0.32534,2.45538 -1.06213,0.37841 -2.32558,0.16482 -2.45328,0.59051 -1.21863,-1.32159 -0.0593,-0.97465 -1.9413,-1.17611 -1.45606,0.42301 z"
       id="path74"
       inkscape:connector-curvature="0" />
    <path
       d="m 46.369884,127.42935 -0.971984,0.46773 -1.070505,0.3829 -0.758296,1.18989 -1.978247,1.8852 -0.388584,-0.52219 -0.445506,0.5466 -2.046369,1.16566 -0.154746,-0.46837 0.890052,-1.22232 0.162278,-1.22548 0.739847,-1.60619 1.189891,-1.52285 1.359577,-2.79833 1.236146,-2.40184 -0.720907,0.365 0.837628,-2.01098 0.126075,-1.74293 0.705057,-1.24027 0.297342,-1.70889 -0.501621,-0.24407 0.720649,-1.54451 0.691265,-0.6832 0.707636,-1.23095 -0.0079,-0.81865 0.421766,-0.67636 1.192845,-1.28925 2.469745,-3.63861 1.107206,-1.32126 0.35059,-0.80768 1.314418,-2.44989 1.905935,-2.536189 1.59689,-1.6397 0.423681,-0.675471 1.90408,-1.768042 2.582804,-3.083001 1.265982,-1.451628 1.81356,-2.238995 0.876741,-0.717579 0.415105,-0.04883 -0.887701,1.211761 -1.895222,1.925587 -1.20136,1.744606 -1.317133,1.601331 -1.140691,1.56961 -1.028695,1.959853 -1.281769,2.067383 1.284582,-1.12669 -0.08597,0.775257 0.385343,-0.01958 -0.145022,0.773613 -0.633261,1.190937 -0.08227,0.421547 0.586502,-0.404865 0.352877,0.268375 3.582721,-3.365944 1.512963,-1.079932 1.323016,0.455337 1.232773,-1.215799 2.038,-1.543232 1.749157,-1.593027 0.915312,-0.380732 -0.918071,1.752673 -0.890136,1.354734 -0.70788,2.001339 0.175074,1.247093 0.662818,0.120653 -0.02906,0.504875 -1.780723,2.466662 0.951303,-0.25125 0.604419,0.32046 0.419642,1.98171 -0.621874,0.76175 -0.300881,-1.14667 -0.665852,-0.21356 -1.14885,1.68356 -5.615766,4.51617 -0.263753,1.65989 1.623228,-1.11241 -0.266298,1.12394 -0.526953,0.1914 -1.669759,1.79466 -0.310337,2.01166 1.120274,-0.0479 0.246545,1.22775 -0.20638,1.27675 -1.902718,8.96083 -1.318254,-0.35182 -0.827698,0.65245 2.016904,-4.49381 -2.022646,0.50947 -1.676716,1.71077 -0.939522,0.39622 -1.557102,2.12001 -1.95042,1.50868 -1.242217,-1.47257 -1.115268,0.46013 -0.654577,-0.49605 -1.508604,0.40914 z"
       id="path76"
       inkscape:connector-curvature="0" />
    <path
       d="m 34.802637,126.28633 -0.858023,0.99744 -0.191488,0.0624 0.393941,-0.75661 0.149156,-0.43837 -0.293361,0.20705 -0.548679,0.64869 -0.514437,0.67795 0.185792,-0.52201 -0.295008,0.32334 -0.191652,0.5201 -0.619145,1.15956 -0.126075,-0.0145 -0.476277,0.69249 -0.02786,-0.0924 0.343795,-0.75415 0.588589,-1.14365 -0.344583,0.48141 0.6291,-1.12821 0.418544,-0.74373 0.896874,-1.26864 0.574109,-0.97153 0.498122,-0.7098 0.08094,0.0169 0.487345,-0.68308 0.697079,-1.18616 -0.110536,0.57773 0.32639,-0.12878 0.489851,-0.29515 -0.864156,1.30903 -0.39617,0.96403 0.267124,-0.22553 -0.415257,0.71353 -0.09901,0.3343 -0.361652,0.73624 z"
       id="path78"
       inkscape:connector-curvature="0" />
    <path
       d="m 66.233592,80.501011 0.338575,-0.366058 1.035268,-1.094424 -0.631174,0.690044 1.660778,-1.723429 1.150779,-1.081709 -0.656519,0.715161 -1.791957,1.848566 -1.664646,1.743165 -1.469969,1.557742 -3.383636,3.781605 2.400501,-2.741742 -0.296927,0.330329 1.66e-4,-1.87e-4 z"
       id="path80"
       inkscape:connector-curvature="0" />
    <path
       id="path82"
       d=""
       inkscape:connector-curvature="0" />
    <path
       id="path84"
       d=""
       inkscape:connector-curvature="0" />
    <path
       id="path86"
       d=""
       inkscape:connector-curvature="0" />
    <path
       id="path88"
       d=""
       inkscape:connector-curvature="0" />
    <path
       d="m 472.54822,144.10508 0.58631,1.47233 0.12155,0.91299 -0.98348,-1.1639 0.92438,1.98486 -0.50573,0.18487 -0.48958,-1.11868 -0.44182,-0.56229 -1.10375,-1.74462 -0.14051,-0.79249 -0.25851,-0.90881 0.4786,-0.10964 0.49178,0.001 0.86116,1.51326 z"
       id="path90"
       inkscape:connector-curvature="0" />
    <path
       id="path92"
       d=""
       inkscape:connector-curvature="0" />
    <path
       d="m 75.042459,72.13139 0.579874,-0.599225 2.014267,-1.788398 1.171717,-0.885709 0.736902,-0.6414 -0.0379,0.230977 1.501833,-1.263693 -0.518483,0.612678 1.159183,-0.926177 0.831743,-0.417955 -1.593188,1.574549 -0.998378,0.658697 -1.303951,1.111592 -0.817561,0.65716 -0.741152,0.751944 -1.10984,0.995446 -0.05752,-0.105932 -1.076071,1.033394 -2.016192,2.238034 -0.44741,0.29753 0.276312,-0.431696 0.442669,-0.564642 -0.22772,0.037 0.873994,-0.887049 0.764385,-0.892443 z"
       id="path94"
       inkscape:connector-curvature="0" />
    <path
       d="m 381.82828,44.786943 -10.88549,-3.307916 -9.76868,-1.749719 -5.10767,-1.505844 -4.13274,-1.531045 -0.17299,-1.043038 -1.77161,-0.942665 -2.40054,-1.350477 -0.99144,-1.058539 -13.17019,-7.586633 -13.14088,-6.559317 -14.47889,-6.085113 0.0612,-0.167754 -0.006,-0.06328 -0.11789,-1.066151 5.88864,0.774565 3.63286,0.794583 2.92425,0.571159 1.26302,-0.0137 4.08349,0.891904 -0.0801,-0.489918 2.01469,0.547583 1.45654,0.231844 4.49524,1.339 0.46506,-0.04956 -1.00283,-0.435979 -1.65532,-1.01219 -0.48079,-0.388723 -1.57124,-0.715619 2.95326,0.795605 3.4896,1.136309 1.83233,0.553094 2.94062,1.013735 5.31901,2.019329 5.17277,2.119904 1.70262,0.747335 2.60186,1.114284 3.28279,1.505351 1.45784,0.699938 2.02939,0.972829 -0.1407,-0.03331 1.35454,0.781089 -0.0105,0.165052 -1.47862,-0.553574 0.88784,0.667639 3.09289,1.71106 0.22123,0.206992 2.29787,1.30696 2.77361,2.323188 1.70981,1.42339 0.5145,0.580136 -0.0103,0.59539 0.54677,0.639446 -0.0655,0.422664 0.68962,0.906437 -1.08429,-0.161222 2.43117,1.946958 0.3744,0.629842 1.52212,1.378995 1.47999,0.580986 2.928,2.072158 z"
       id="path96"
       inkscape:connector-curvature="0" />
    <path
       d="m 33.895662,149.90169 1.319985,-3.61132 -0.374739,-0.64108 -0.947935,2.3805 -1.191527,0.43049 0.508781,-1.36566 -0.09317,-2.07536 0.805566,-1.40188 0.623194,-2.24499 1.087218,-2.82929 0.02352,-0.92464 1.312762,-2.10248 1.741068,-2.97084 2.046369,-1.16566 0.445506,-0.5466 0.388584,0.52219 1.978247,-1.8852 0.758296,-1.18989 1.070505,-0.3829 0.971984,-0.46773 0.07302,1.7466 -0.986391,2.63646 -2.955931,5.8417 -2.950285,4.34458 -1.576573,4.16035 -0.518802,2.46999 -1.319407,2.7418 -0.89325,-0.31701 -0.88146,0.80197 -0.911761,1.3779 -0.01556,-0.98474 0.654833,-1.47987 z"
       id="path98"
       inkscape:connector-curvature="0" />
    <path
       d="m 439.90517,87.408402 0.26891,0.322537 0.087,0.145962 -0.29366,-0.312564 -1.16554,-1.372011 -1.60278,-1.851625 -3.05306,-3.427121 1.7e-4,1.84e-4 z m -6.32556,-7.109689 2.32649,2.584137 2.70533,3.13807 3.64602,4.530026 1.48032,1.901634 1.37939,1.838687 3.24411,4.39726 -0.24944,-0.211728 0.76625,1.299812 3.49445,4.892029 0.58827,0.88318 -9.07105,-10.72779 -9.73332,-10.050173 -10.93315,-9.899708 -3.2767,-6.045639 -3.83052,-5.128387 -1.74968,-1.731449 -0.0742,-0.214728 -0.93852,-0.875146 0.33098,0.211482 3.37798,2.941441 2.76233,2.513583 2.84424,2.670357 1.33787,1.286192 0.79252,0.766211 1.8e-4,1.75e-4 z"
       id="path100"
       inkscape:connector-curvature="0" />
    <path
       d="m 471.22746,142.26073 -0.81393,-1.81426 -1.09495,-2.63814 -1.0478,-2.09063 -0.70444,-1.58346 -2.00008,-3.52055 -1.43976,-2.05208 -0.62898,-1.18912 -1.12633,-1.17938 -1.57821,-2.80207 -0.28282,0.7936 -2.74045,-3.83699 -0.4582,-1.2089 0.10526,-2.03658 -0.22081,-1.17059 0.48784,0.2322 1.49786,1.74852 0.6603,0.21793 2.08675,4.20061 1.20131,2.84778 1.45397,2.70929 3.3409,6.22254 1.41685,3.00107 1.35727,3.0024 0.77182,1.76974 1.07739,2.22142 -0.4596,-0.33109 z"
       id="path102"
       inkscape:connector-curvature="0" />
    <path
       d="m 332.40009,13.969865 0.26322,0.09235 -1.56282,-0.527745 -0.30714,-0.0551 -2.33954,-0.754238 -1.92241,-0.494912 -4.20648,-1.284929 -3.19101,-0.928304 -1.96819,-0.4686887 -1.15775,-0.2173662 -1.69019,-0.4691528 -1.3655,-0.4382419 -1.13962,-0.4149905 -3.19447,-0.8117744 -0.37262,-0.1468783 1.13339,0.2159193 0.37395,0.057833 -1.23677,-0.328592 0.70449,0.1287259 -1.20957,-0.3000888 2.4e-4,5.8e-5 z"
       id="path104"
       inkscape:connector-curvature="0" />
    <path
       id="path106"
       d=""
       inkscape:connector-curvature="0" />
    <path
       d="m 460.79298,123.39104 1.57821,2.80207 1.12633,1.17938 0.62898,1.18912 1.43981,2.05215 2.00003,3.52048 0.70444,1.58345 1.0478,2.09064 1.09495,2.63814 0.81393,1.81426 -0.49178,-0.001 -0.4786,0.10964 0.25851,0.90881 0.14051,0.79249 1.10375,1.74462 0.44182,0.56229 0.48958,1.11868 -0.30189,0.20594 0.87723,2.503 0.83152,2.34371 0.8042,2.08192 5.98625,13.30774 1.36118,2.66411 -4.61104,-1.12134 -2.40051,-3.98173 -1.76651,-0.91684 -1.26448,-1.94371 -0.58566,-0.01 -1.38902,-2.11047 -0.79249,-2.13663 -1.98341,-1.68483 -0.70204,0.20929 -1.44392,-2.23234 -0.47115,-0.97566 -0.52636,-0.63276 -0.70838,-0.97746 -2.78986,-6.02216 -1.64098,-2.05743 -0.78213,-1.86609 0.0431,-1.46062 -1.24479,-1.95346 -1.42661,-4.50776 -1.13546,-1.9065 -0.45266,-1.51351 -1.30465,-2.672 -1.56795,-1.92394 0.81279,-0.44676 1.33548,1.45013 0.33353,-0.32688 -0.18561,-2.2372 0.49092,-1.67932 1.08231,0.6835 0.12164,-0.68458 0.77361,-0.57367 1.23933,0.57237 0.52064,-1.11176 -0.0577,-1.50306 2.74045,3.83699 z"
       id="path108"
       inkscape:connector-curvature="0" />
    <path
       id="path110"
       d=""
       inkscape:connector-curvature="0" />
    <path
       id="path112"
       d=""
       inkscape:connector-curvature="0" />
    <path
       d="m 131.86397,278.03949 1.31448,-3.79294 2.26305,-0.0501 0.53679,-2.27431 2.54071,0.83886 -0.003,1.71925 -2.27226,2.73864 -1.60427,-0.82528 -0.86869,2.76504 z"
       id="path114"
       inkscape:connector-curvature="0" />
    <path
       d="m 119.05804,71.877537 -1.59378,1.608067 -1.7849,0.958068 -0.35961,-0.523134 -0.79243,0.254535 -1.25483,1.225295 -1.47482,0.181044 1.12861,-1.544369 0.5513,-1.329792 0.8554,-1.390206 -1.06881,-0.86312 0.11825,-1.590412 2.40616,-2.987743 1.15814,-0.283782 2.53181,-0.597881 3.39169,0.451203 0.38109,0.780145 -2.68493,3.25293 z"
       id="path116"
       inkscape:connector-curvature="0" />
    <path
       d="m 378.6125,104.459 -3.27892,-4.955779 -2.07005,-3.642193 -1.8197,-4.075839 0.26512,-0.871984 0.96032,-0.482033 1.20868,-1.553431 1.03548,-1.63986 1.28774,0.488709 5.40934,2.872589 0.36599,-3.241065 1.76909,0.776453 2.18269,1.586083 2.19025,0.874289 0.43414,0.402248 -0.39873,1.010557 0.83955,1.968119 2.70162,1.343806 0.82395,1.066669 -1.97778,2.244638 1.45071,2.642454 0.0466,2.42054 -0.76173,1.6151 -1.32865,0.69997 -3.15343,-1.9704 -1.70336,-2.4754 -0.50524,1.10407 -2.52641,-1.01811 -1.38651,0.0367 1.03978,2.67542 z"
       id="path118"
       inkscape:connector-curvature="0" />
    <path
       id="path120"
       d=""
       inkscape:connector-curvature="0" />
    <path
       id="path122"
       d=""
       inkscape:connector-curvature="0" />
    <path
       d="m 343.43123,60.330737 -6.47998,-0.803433 -2.35497,0.0853 -3.76863,-0.478295 -3.58835,-1.849286 0.29617,-0.915174 -1.56171,-2.63135 1.34463,-2.349598 1.90719,-1.409796 -0.81976,-3.519956 -0.43417,-1.80433 0.17911,-1.179528 7.03449,2.127011 1.76777,0.746501 1.31195,0.09702 1.8417,0.807236 -0.32626,0.562138 1.61067,1.698158 -0.0988,1.592831 0.2658,1.90221 0.94672,1.190389 -1.049,1.768305 0.22042,1.286211 0.93689,1.901843 z"
       id="path124"
       inkscape:connector-curvature="0" />
    <path
       d="m 304.68209,44.703091 -1.18452,-0.323533 -0.97247,0.742375 -1.19284,-0.268332 -0.7617,-0.667367 0.39175,-0.863325 -1.59679,-1.754526 -1.13426,0.02818 -0.90895,-0.130686 -1.18141,-0.100379 0.15008,-0.813109 -0.6061,-0.713202 0.21645,-0.614576 -0.80197,-1.092725 -1.07926,-0.992472 -3.37951,-0.61391 -1.03934,0.233277 -1.17418,-0.149828 -0.78665,0.345051 -0.57074,0.523322 -2.4063,0.601765 -1.68559,-1.585771 -1.53441,-1.091425 -1.04916,-0.43447 -1.00016,-0.572965 -0.3457,-0.999329 -0.55346,-0.544785 -1.18376,-0.50457 2.03481,-0.748194 1.2796,0.21696 1.1527,-0.18355 0.93315,0.133425 0.70391,-0.169228 -0.26559,-0.720072 0.49126,-0.139488 0.17087,-0.660148 2.02857,0.333396 2.95839,0.973812 0.93209,0.11196 0.34328,-0.166986 2.2682,0.557828 0.61886,-0.0032 0.15325,0.775498 0.66559,0.119391 1.12599,-0.06414 0.68622,0.197866 1.10305,0.734412 1.77304,0.514401 1.19483,-0.206502 1.37732,0.0084 1.03083,-0.07053 0.82777,0.229891 0.87974,0.641219 0.43917,0.667233 1.6193,1.237779 -0.90904,0.3425 -0.2341,0.6442 0.91072,-0.0082 0.49588,0.362445 -0.28695,0.579294 1.21089,0.905158 -0.85047,-0.02407 -0.41438,0.656349 0.86682,1.121201 0.83885,2.016734 -1.58864,-0.08791 -0.43725,0.222783 0.27425,0.5115 -0.36391,0.941505 z"
       id="path126"
       inkscape:connector-curvature="0" />
    <path
       d="m 270.73253,27.261508 0.68135,-0.788731 4.59514,0.482594 1.01953,-0.32737 1.33642,0.142448 1.58787,0.687977 1.30198,0.190562 1.42936,-0.119873 0.76986,0.673523 -1.87888,0.164754 -1.8223,-0.289509 -1.74366,-0.645882 -1.62847,0.240984 -0.75749,-0.07845 -1.05585,0.145965 z"
       id="path128"
       inkscape:connector-curvature="0" />
    <path
       d="m 277.31114,32.345779 -2.13492,-1.148553 -1.76583,-0.351143 -0.88318,-0.684956 0.0739,-0.303325 -1.22354,-0.570413 -0.19983,-0.454404 2.29398,-0.06635 1.39013,0.230857 1.16761,-0.08133 7.78238,1.159315 -0.17087,0.660148 -0.49126,0.139488 0.26559,0.720072 -0.70391,0.169228 -0.93315,-0.133425 -1.1527,0.18355 -1.2796,-0.21696 z"
       id="path130"
       inkscape:connector-curvature="0" />
    <path
       d="m 374.91343,87.237881 -0.6515,-0.763739 1.66454,-2.349235 6.05003,3.233207 -0.36599,3.241065 -5.40934,-2.872589 z"
       id="path132"
       inkscape:connector-curvature="0" />
    <path
       id="path134"
       d=""
       inkscape:connector-curvature="0" />
    <path
       id="path136"
       d=""
       inkscape:connector-curvature="0" />
    <path
       id="path138"
       d=""
       inkscape:connector-curvature="0" />
    <path
       d="m 97.508001,69.966213 1.909998,-0.389353 1.601211,0.379081 -0.27723,1.178905 1.26857,-0.640345 1.5011,0.198826 1.13073,0.135099 -1.13455,2.511972 -2.25839,1.761179 0.0419,0.494418 -0.94164,1.649689 1.11729,1.052366 1.10958,-0.579668 0.15504,1.232224 1.70008,1.201173 -0.87059,0.529293 -1.88899,0.771488 -1.25568,1.302939 -1.644489,1.304566 -1.105552,0.705093 -0.46879,0.734303 -1.651477,0.793472 -1.861068,-0.08031 -0.01576,-1.090793 -0.598214,-0.83632 1.001316,-2.523375 1.1359,-1.440491 -0.493847,-0.742759 -1.057082,0.282593 0.70957,-1.35883 -0.628145,-0.123726 -1.753228,1.130976 -1.715347,-0.535935 1.07819,-1.216941 0.264043,-1.084887 2.140561,-1.603551 0.958753,-0.936087 -0.854759,-0.218311 0.566357,-1.036308 z"
       id="path140"
       inkscape:connector-curvature="0" />
    <path
       d="m 41.283606,112.38653 0.226724,-0.339 0.222872,-0.31614 0.474277,-0.67709 0.122405,-0.12616 -0.629341,0.90923 -0.452112,0.68848 -0.835428,1.26269 -0.473221,0.71153 -0.584378,0.907 -0.306666,0.4645 -0.10079,0.14036 -0.230245,0.36093 -0.561505,0.90012 -0.161379,0.25324 -0.31085,0.51132 -0.997458,1.61991 -0.486583,0.79839 -0.346716,0.57769 -0.246992,0.38563 -0.731694,1.23286 -0.349985,0.586 -0.431951,0.73276 -0.610424,1.07507 -0.261127,0.44692 -0.507037,0.89613 -0.574679,1.00305 0,0 0.118215,-0.22517 -0.166576,0.29485 1.22e-4,-2.1e-4 z"
       id="path142"
       inkscape:connector-curvature="0" />
    <path
       id="path144"
       d=""
       inkscape:connector-curvature="0" />
    <path
       d="m 71.626925,75.236442 1.454023,-1.362323 1.961511,-1.742729 -0.592487,0.794679 -0.764385,0.892443 -0.873994,0.887049 0.22772,-0.037 -0.442669,0.564642 -1.462568,1.242095 -1.297467,1.255568 -1.423688,1.325213 -1.431028,1.493349 -0.851963,0.702901 0.694487,-0.834575 2.053827,-1.963817 1.772841,-1.652576 1.239623,-1.274776 -0.511903,0.269106 0.595777,-0.72718 -1.331182,1.21224 z"
       id="path146"
       inkscape:connector-curvature="0" />
    <path
       id="path148"
       d=""
       inkscape:connector-curvature="0" />
    <path
       id="path150"
       d=""
       inkscape:connector-curvature="0" />
    <path
       id="path152"
       d=""
       inkscape:connector-curvature="0" />
    <path
       id="path154"
       d=""
       inkscape:connector-curvature="0" />
    <path
       id="path156"
       d=""
       inkscape:connector-curvature="0" />
    <path
       id="path158"
       d=""
       inkscape:connector-curvature="0" />
    <path
       id="path160"
       d=""
       inkscape:connector-curvature="0" />
    <path
       id="path162"
       d=""
       inkscape:connector-curvature="0" />
    <path
       id="path164"
       d=""
       inkscape:connector-curvature="0" />
    <path
       d="m 59.086828,88.741245 1.385665,-1.534187 0.859919,-0.868617 -0.02254,0.123462 -1.651804,1.812698 -0.941335,1.106619 -1.023206,1.111448 -0.716668,0.744467 0.614504,-0.76336 1.0383,-1.21673 z"
       id="path166"
       inkscape:connector-curvature="0" />
    <path
       id="path168"
       d=""
       inkscape:connector-curvature="0" />
    <path
       id="path170"
       d=""
       inkscape:connector-curvature="0" />
    <path
       id="path172"
       d=""
       inkscape:connector-curvature="0" />
    <path
       d="m 468.45522,172.96547 0.81756,4.12995 -1.64805,-1.04275 -0.74424,0.4145 -0.83093,-0.94272 -0.71681,1.55909 -0.93876,0.16659 -0.85934,1.30527 -1.10254,-0.27497 -2.53589,-7.18336 0.20093,-1.8556 -7.63367,-16.41564 -0.37563,-0.79456 0.42265,-2.96718 0.87478,-0.28574 1.456,-0.38048 1.11732,-0.91602 -0.80824,-4.36094 -0.19464,-1.67205 -1.07854,-3.20019 1.60293,0.21823 1.70996,0.26169 1.24479,1.95346 -0.0431,1.46062 0.78213,1.86609 1.64098,2.05743 2.78986,6.02216 0.70838,0.97746 0.52636,0.63276 0.47115,0.97566 1.44392,2.23234 0.70204,-0.20929 1.98341,1.68483 0.79249,2.13663 1.38902,2.11047 -1.9788,0.33574 z"
       id="path174"
       inkscape:connector-curvature="0" />
    <path
       id="path176"
       d=""
       inkscape:connector-curvature="0" />
    <path
       id="path178"
       d=""
       inkscape:connector-curvature="0" />
    <path
       id="path180"
       d=""
       inkscape:connector-curvature="0" />
    <path
       id="path182"
       d=""
       inkscape:connector-curvature="0" />
    <path
       id="path184"
       d=""
       inkscape:connector-curvature="0" />
    <path
       id="path186"
       d=""
       inkscape:connector-curvature="0" />
    <path
       id="path188"
       d=""
       inkscape:connector-curvature="0" />
    <path
       d="m 306.76404,53.390796 -1.11011,-0.235388 -4.21192,-2.162358 -3.61534,-2.675197 -3.45135,-2.034057 -2.66526,-2.066014 1.11674,-0.562233 0.31451,-0.633617 2.07652,-0.884161 2.10448,-0.671891 0.90895,0.130686 1.13426,-0.02818 1.59679,1.754526 -0.39175,0.863325 0.7617,0.667367 1.19284,0.268332 0.97247,-0.742375 1.18452,0.323533 -0.27425,0.628277 0.28586,1.222739 -1.04609,0.844643 1.15038,0.930286 1.32075,0.465948 1.66143,1.426731 0.009,0.990389 -0.44175,0.211724 z"
       id="path190"
       inkscape:connector-curvature="0" />
    <path
       d="m 391.63658,51.178017 -2.10171,-0.825853 -2.18019,-1.931584 -5.5264,-3.633637 -1.83372,-1.704549 -2.928,-2.072158 -1.47999,-0.580986 -1.52212,-1.378995 -0.3744,-0.629842 -2.43117,-1.946958 1.08429,0.161222 -0.68962,-0.906437 0.0655,-0.422664 -0.54677,-0.639446 0.0103,-0.59539 -0.5145,-0.580136 -1.70981,-1.42339 1.40165,0.581289 -0.0543,-0.258872 -0.67301,-0.558524 1.86464,0.788836 0.69556,0.229338 1.27118,0.567576 -0.5246,-0.554817 3.93109,2.289163 1.19723,0.65422 2.69315,1.618445 4.42889,2.813331 2.29582,1.744985 2.86909,1.900438 4.57868,3.189528 3.61718,2.690933 1.12646,0.690872 0.85976,0.453076 -1.52235,-1.320658 0.31546,0.113342 1.43261,0.967649 1.70944,1.264297 3.88916,3.033469 1.47423,1.219619 0.99121,0.799045 1.05654,0.879405 2.7438,2.295366 1.05783,0.931717 -0.33098,-0.211482 0.93852,0.875146 0.0742,0.214728 1.74968,1.731449 3.83052,5.128387 3.2767,6.045639 1.47851,3.582581 -3.32133,-2.760364 0.23875,0.742552 -13.24066,-12.565 L 394.5577,52.36907 Z"
       id="path192"
       inkscape:connector-curvature="0" />
    <path
       id="path194"
       d=""
       inkscape:connector-curvature="0" />
    <path
       d="m 404.62987,226.40521 0.26132,1.84787 -1.71217,0.91447 -1.06575,0.70409 -1.68256,-0.77644 -1.09187,0.66117 -1.08612,-0.48885 -0.37433,-4.36635 2.57827,-0.9325 2.12086,-0.0618 1.56398,0.41514 z"
       id="path196"
       inkscape:connector-curvature="0" />
    <path
       id="path198"
       d=""
       inkscape:connector-curvature="0" />
    <path
       id="path200"
       d=""
       inkscape:connector-curvature="0" />
    <path
       id="path202"
       d=""
       inkscape:connector-curvature="0" />
    <path
       d="m 316.69734,9.5697092 2.20433,0.7333668 3.20569,0.896751 3.59957,1.152127 1.47111,0.46245 1.57124,0.715619 0.48079,0.388723 1.65532,1.01219 1.00283,0.435979 -0.46506,0.04956 -4.49524,-1.339 -1.45654,-0.231844 -2.01469,-0.547583 0.0801,0.489918 -4.08349,-0.891904 -1.26302,0.0137 -2.92425,-0.571159 -3.63286,-0.794583 -5.88864,-0.774565 0.11789,1.066151 -0.57351,-0.126052 0.11513,0.530738 -2.34246,-0.471762 -1.22078,-0.03203 -1.73039,-0.350604 -1.37893,-0.398698 -3.21675,-0.501356 -1.29253,0.555052 -1.21114,-0.13675 -1.94126,1.046648 -5.60844,0.387287 -1.55243,1.524103 -1.7275,0.356005 -0.55674,0.414762 -9.09578,-0.991057 -0.0701,-0.0096 0.31555,-0.595736 1.61532,-0.18718 1.44061,-0.515763 -0.17578,-0.450977 1.53194,-0.691592 2.337,-0.466095 1.35789,-0.01083 1.14615,-0.506922 0.18516,-0.5558289 1.5029,-0.4401398 2.6264,0.012453 2.5446,-0.5896324 0.0713,-0.00162 1.94556,-0.03317 3.53245,0.5096635 2.98164,-0.039467 1.87427,0.1420826 3.06481,-0.032897 -1.00939,-1.0819169 1.30118,-0.2645928 0.42345,-0.2093863 2.2053,0.1259069 3.46918,0.5745222 2.51036,0.4226688 2.041,0.1191299 0.89038,0.037653 z"
       id="path204"
       inkscape:connector-curvature="0" />
    <path
       id="path206"
       d=""
       inkscape:connector-curvature="0" />
    <path
       d="m 473.60955,233.10321 -0.16544,2.07326 -0.52374,2.69433 -1.445,3.98638 -0.31968,2.16921 -0.84469,1.07238 -0.68515,0.29519 0.40093,-2.76363 -0.70343,0.26804 -0.85347,2.7459 -0.78313,0.95266 -0.75286,-0.18852 -1.45166,2.26708 -2.51095,2.18077 -3.12537,2.51878 -4.41041,3.68988 -3.27553,2.94636 -3.01922,2.08698 -1.72705,-1.66166 -2.24742,-1.25744 -0.40556,-2.41409 -0.59402,-3.34653 0.5851,-2.38284 1.62003,-2.8705 0.90108,-3.43071 1.17193,-2.44637 1.62423,-1.66168 1.12152,0.82584 0.59552,-0.99603 2.15519,-0.86928 1.24136,-1.64429 0.38576,-2.11306 0.69522,-2.45981 1.3153,-3.00506 1.48037,-0.62226 1.18855,-1.48868 0.92642,1.4055 1.25987,1.09352 0.89022,0.59852 0.74874,1.31024 1.75543,0.08 2.17843,0.75092 1.16247,-0.53246 0.36812,-1.67432 0.49245,1.68356 1.75523,-0.28481 0.80167,-1.6863 1.05168,-0.24512 z"
       id="path208"
       inkscape:connector-curvature="0" />
    <path
       id="path210"
       d=""
       inkscape:connector-curvature="0" />
    <path
       id="path212"
       d=""
       inkscape:connector-curvature="0" />
    <path
       d="m 290.72455,27.242056 1.43904,-0.09022 0.82132,-0.940463 1.31617,0.196297 2.83282,1.043645 2.36333,0.101916 1.58112,0.443674 0.65392,-0.271357 16.37096,3.848636 0.94887,-1.008732 -0.68979,-0.403124 -1.81398,-7.426957 -2.08802,-6.09816 5.82574,1.514543 13.14088,6.559317 13.17019,7.586633 0.99144,1.058539 2.40054,1.350477 1.77161,0.942665 0.17299,1.043038 4.13274,1.531045 0.43756,3.944817 -1.98429,0.350992 -0.25974,1.002524 -3.3921,-1.062698 -5.27315,-1.849618 -1.42759,0.135645 -2.50734,-0.827042 -2.52016,-0.87146 -0.98428,-0.694962 -2.17486,-0.465889 -3.7233,-0.428131 -0.77525,0.351918 -3.13909,-0.101924 -0.56759,0.332549 -1.70972,-0.107039 -1.94433,-0.833975 -1.13672,0.159087 -0.67749,1.191397 -3.36334,0.786642 0.0408,0.725498 -1.19373,0.584594 0.16793,1.30467 -1.73278,-0.133225 -0.99158,0.02033 -0.55647,-1.080751 -1.21846,-0.06344 -0.71153,-0.220891 -0.82444,0.435274 -3.21298,-0.793017 -1.12146,-0.591422 -0.56427,0.0688 -1.21089,-0.905158 0.28695,-0.579294 -0.49588,-0.362445 -0.91072,0.0082 0.2341,-0.6442 0.90904,-0.3425 -1.6193,-1.237779 -0.43917,-0.667233 -0.87974,-0.641219 -0.82777,-0.229891 -1.03083,0.07053 -1.37732,-0.0084 -1.19483,0.206502 -1.77304,-0.514401 -1.10305,-0.734412 -0.68622,-0.197866 -1.12599,0.06414 -0.66559,-0.119391 -0.15325,-0.775498 0.26722,-0.580442 -0.26691,-0.819599 -1.49868,-0.82002 -0.68939,-1.230911 z"
       id="path214"
       inkscape:connector-curvature="0" />
    <path
       id="path216"
       d=""
       inkscape:connector-curvature="0" />
    <path
       id="path218"
       d=""
       inkscape:connector-curvature="0" />
    <path
       id="path220"
       d=""
       inkscape:connector-curvature="0" />
    <path
       d="m 445.48254,184.86028 1.90581,1.90649 2.51378,4.32562 0.74481,0.37623 1.61491,1.95582 1.13651,0.14256 1.31176,1.82009 2.79777,2.09035 2.30588,0.66342 -0.15054,1.82061 -1.2124,2.8475 -0.79118,2.99927 -1.90413,4.82112 -0.29727,2.00383 -1.58393,1.27953 -1.77208,0.96817 -2.21263,0.0313 -2.48649,-1.48393 -3.16306,-1.73175 -4.14267,0.15673 -1.15288,-0.50242 -2.70785,0.30583 -1.31972,-0.40022 -1.3389,2.03669 -0.15524,3.70575 -0.54241,2.40596 -0.48516,0.9875 0.48401,0.32112 -1.78141,3.051 -1.19339,1.0485 0.21514,1.1817 -1.08884,0.93232 -1.58587,0.0259 -2.4862,-1.09199 -3.7754,-1.37706 -1.71523,0.0801 -0.59006,1.60029 0.46809,0.87488 -1.20471,1.50469 -1.75643,-1.95306 0.6347,-1.67382 0.48646,-1.85275 0.45884,-1.39949 2.44696,-3.20684 0.62076,-2.99928 1.21177,-5.84647 4.46427,-0.93237 1.79987,-1.62873 0.5133,0.11011 1.19692,-1.58939 0.062,-1.38198 1.2341,-2.27733 1.50103,-1.68256 1.79002,-4.02204 -0.85823,-2.43415 -1.1073,-1.52379 -0.21895,-1.36794 -0.91478,-1.92054 -2.20687,-2.17315 0.31159,-1.3588 0.64718,-2.50927 8.8441,5.69845 0.82541,3.09799 0.7894,0.48415 0.63584,1.89428 -0.37872,1.4088 -1.11965,0.85991 -0.77461,2.41126 0.68933,3.75745 1.68648,-1.31166 1.29866,0.56665 1.51669,-4.22693 -0.067,-3.42421 -0.46158,-2.01877 -0.85357,-0.93819 0.85662,-4.79154 z"
       id="path222"
       inkscape:connector-curvature="0" />
    <path
       d="m 290.72455,27.242056 -2.58709,-1.704443 -2.34014,-1.694874 -2.68758,-0.869601 -1.90667,-0.782441 -2.31676,-0.2937 -2.08381,0.111723 -2.04056,-0.397109 -1.51755,0.384105 -0.20116,-0.957846 1.30011,-0.690083 0.77594,-1.462618 -0.18515,-1.583719 -0.35999,-0.800518 0.53935,-0.681687 -0.92496,-0.797253 -2.01966,-0.832997 0.97353,-0.361147 15.76968,2.130446 -0.53305,-2.020732 1.04283,-0.483958 3.71203,0.514057 0.10682,-2.921163 12.62303,2.54825 -0.0566,-1.528111 14.47889,6.085113 -5.82574,-1.514543 2.08802,6.09816 1.81398,7.426957 0.68979,0.403124 -0.94887,1.008732 -16.37096,-3.848636 -0.65392,0.271357 -1.58112,-0.443674 -2.36333,-0.101916 -2.83282,-1.043645 -1.31617,-0.196297 -0.82132,0.940463 z"
       id="path224"
       inkscape:connector-curvature="0" />
    <path
       d="m 445.48254,184.86028 -1.53651,1.52755 -0.85662,4.79154 0.85357,0.93819 0.46158,2.01877 0.067,3.42421 -1.51669,4.22693 -1.29866,-0.56665 -1.68648,1.31166 -0.68933,-3.75745 0.77461,-2.41126 1.11965,-0.85991 0.37872,-1.4088 -0.63584,-1.89428 -0.7894,-0.48415 -0.82541,-3.09799 -1.00434,-2.26523 1.86765,-2.03659 1.19138,-0.19395 0.44334,-3.08389 1.37432,-1.91086 0.71026,-0.34315 0.21311,-3.29022 -0.77221,-2.67788 2.30536,3.33645 0.23173,1.40557 0.37305,2.37481 z"
       id="path226"
       inkscape:connector-curvature="0" />
    <path
       id="path228"
       d=""
       inkscape:connector-curvature="0" />
    <path
       d="m 370.28369,197.55067 -1.10095,-4.19656 -0.10609,-3.41502 0.75185,-3.96046 0.26475,-3.09843 1.07587,-6.19202 1.53784,-4.31421 0.29382,-2.18874 -0.76026,-2.22547 -0.69284,-3.9285 -0.33765,-5.23744 -0.0176,-2.61625 -1.7224,-4.96123 0.61872,-2.76625 1.88834,0.2765 2.26784,0.5893 2.21041,1.39064 1.54594,2.74506 0.59429,0.0662 13.51805,8.43868 1.64913,3.14979 7.41548,5.97926 6.10007,2.97742 2.72802,1.2246 1.83173,1.7725 0.85372,1.71129 -0.0877,0.29144 -1.93779,-0.63915 -0.89161,-0.73092 -2.40121,-0.24142 -0.59625,-2.28473 -5.11585,-2.46959 -2.33251,-1.61045 -4.926,12.04621 -3.05438,-2.0739 -4.31634,10.1706 -5.97428,13.08227 -3.47068,-0.014 -1.70355,-0.83081 -1.55226,-1.95003 -1.22393,-1.1599 0.18585,-1.88442 -0.76034,-1.77602 z"
       id="path230"
       inkscape:connector-curvature="0" />
    <path
       id="path232"
       d=""
       inkscape:connector-curvature="0" />
    <path
       d="m 348.60641,48.400092 0.11022,-1.373695 -4.52093,-2.149154 -0.10992,-1.011496 -2.20694,-2.076838 -0.52639,-1.063218 0.30734,-0.807607 2.50734,0.827042 1.42759,-0.135645 5.27315,1.849618 3.3921,1.062698 0.25974,-1.002524 1.98429,-0.350992 -0.43756,-3.944817 5.10767,1.505844 9.76868,1.749719 10.88549,3.307916 5.5264,3.633637 2.18019,1.931584 2.10171,0.825853 1.70757,2.948084 1.37213,1.18553 0.22443,0.560275 1.5474,1.431338 -0.49329,0.28486 -0.35991,2.801119 0.31118,2.318242 -4.05726,-0.814883 -1.1668,1.729176 1.52878,1.601237 0.11813,1.319178 2.23084,1.377301 -0.26214,0.778265 -0.97162,-0.466402 -0.0631,0.607334 -0.64623,-0.338368 -2.54784,-3.676836 -0.83175,-0.556638 -2.67563,-0.409728 -2.80692,-2.126901 -1.94255,-1.161589 -1.02294,-0.26493 -2.13059,-1.174143 -2.10826,-0.225894 -1.87283,-0.890959 -4.529,-3.240485 -1.74864,-0.335669 -1.91511,-0.921828 -1.43741,-1.406786 -3.81533,-2.426881 -4.08855,-1.513618 -0.98916,0.01405 -0.52548,0.931374 -1.10351,0.368327 -0.28275,1.742756 -2.95194,-2.38296 -1.39936,-0.540876 z"
       id="path234"
       inkscape:connector-curvature="0" />
    <path
       d="m 372.25252,75.542827 -4.03429,-0.985801 -1.44187,-0.812071 -1.53368,-0.11313 -3.08784,-1.448036 -1.92943,-2.488646 -1.12209,-2.349033 -2.63443,-2.778759 -2.95651,-1.184411 -3.49134,-1.390124 0.52254,-3.730727 -0.005,-1.504857 0.82418,-1.138275 1.24467,-0.20661 1.95499,-0.606129 -0.39071,-0.755941 0.79364,-0.561056 -0.84584,-1.625171 0.1632,-0.640122 0.28275,-1.742756 1.10351,-0.368327 0.52548,-0.931374 0.98916,-0.01405 4.08855,1.513618 3.81533,2.426881 1.43741,1.406786 1.91511,0.921828 1.74864,0.335669 4.529,3.240485 1.87283,0.890959 2.10826,0.225894 2.13059,1.174143 1.02294,0.26493 1.94255,1.161589 2.80692,2.126901 2.67563,0.409728 0.83175,0.556638 2.54784,3.676836 0.64623,0.338368 1.43451,1.677697 -0.35575,0.160995 -0.14498,0.610387 -2.8907,-0.05085 -0.90397,0.879813 -0.48958,0.885423 -0.75591,0.074 -0.73386,1.200714 -1.94474,-0.122789 -0.59387,0.879386 -0.85053,0.507055 -0.38372,0.80977 -2.55674,-0.547574 -2.01817,-2.087187 -1.40584,-0.691551 -2.29782,0.276843 -1.08514,-0.524459 -1.95521,1.477008 z"
       id="path236"
       inkscape:connector-curvature="0" />
    <path
       d="m 32.606423,127.2069 -0.249251,0.25182 -0.33783,0.40026 0.02995,-0.15659 -0.326775,0.48928 -0.261966,0.40523 0.381918,-0.6874 0.08008,-0.13079 0.216773,-0.38676 0.574679,-1.00305 0.507037,-0.89613 0.261127,-0.44692 0.610424,-1.07507 0.431951,-0.73276 0.349985,-0.586 0.731694,-1.23286 0.246992,-0.38563 0.346716,-0.57769 0.486583,-0.79839 0.997458,-1.61991 0.31085,-0.51132 0.161379,-0.25324 0.561505,-0.90012 0.230245,-0.36093 0.10079,-0.14036 0.306666,-0.4645 0.584378,-0.907 0.473221,-0.71153 0.835428,-1.26269 0.452112,-0.68848 0.629341,-0.90923 -0.298157,0.45121 -0.403814,0.63669 -0.297536,0.53101 -0.89674,1.40825 -0.731817,1.21103 -0.626249,1.09561 -0.221015,0.44016 -0.507309,0.96803 -0.413699,0.65911 -0.693277,1.26178 -0.179346,0.42461 -0.68969,1.1832 -0.220675,0.50757 0.10888,-0.0456 -0.697079,1.18616 -0.487345,0.68308 -0.08094,-0.0169 -0.498122,0.7098 -0.574109,0.97153 -0.896874,1.26864 z"
       id="path238"
       inkscape:connector-curvature="0" />
    <path
       id="path240"
       d=""
       inkscape:connector-curvature="0" />
    <path
       id="path242"
       d=""
       inkscape:connector-curvature="0" />
    <path
       id="path244"
       d=""
       inkscape:connector-curvature="0" />
    <path
       d="m 191.05051,492.87058 -0.56647,-0.19295 -2.41866,-0.55893 -0.73714,-0.24929 0.18128,-0.0239 1.36512,0.26054 2.33955,0.40844 1.73864,0.30836 -0.93255,-0.38182 2.3582,0.5622 2.74666,0.4955 1.03565,-0.0259 2.03764,-0.0191 2.46114,0.27959 1.54948,0.15269 2.70603,0.5157 1.85153,0.49699 3.22525,0.56271 0.46109,0.25012 -1.709,0.0607 -3.99938,-0.30425 -2.02802,-0.30764 -2.308,-0.3236 -2.80039,-0.4208 -2.02686,-0.30505 -1.62935,-0.21128 -1.28282,-0.24989 -0.65428,-0.0771 -2.40557,-0.52577 z m -16.86456,-4.64332 0.22605,0.0715 2.35091,0.73334 -2.4e-4,-8e-5 z m 2.67204,0.83392 1.00309,0.30165 -0.0691,-0.0378 0.56666,0.15947 1.48076,0.3932 1.91482,0.46624 2.61694,0.67037 0.41104,0.15941 1.24443,0.36044 -2.20261,-0.50171 0.79954,0.25603 3.31342,0.8852 -0.0481,-0.0121 -2.5e-4,-6e-5 z"
       id="path246"
       inkscape:connector-curvature="0" />
    <path
       d="m 486.28357,168.32946 -0.4235,-1.17498 -0.48821,-1.32538 -0.97158,-2.72803 -1.38495,-3.6762 9e-5,2.3e-4 z"
       id="path248"
       inkscape:connector-curvature="0" />
    <path
       id="path250"
       d=""
       inkscape:connector-curvature="0" />
    <path
       d="m 44.877012,114.71762 -0.522057,0.18075 -0.01032,-0.75198 0.8113,-1.31767 -0.517111,0.51414 -0.114072,-0.30033 -0.854948,0.67431 -1.03429,1.34416 -0.780626,1.39936 -1.119497,1.7226 -0.505194,0.68682 -0.404679,0.78247 0.544695,0.0268 -0.70746,1.07006 -0.44248,0.76872 -1.043029,1.41854 0.162854,-1.00511 -0.428611,0.78481 -0.639262,0.7759 -0.05091,-0.43182 -0.782311,0.98836 -0.418268,0.44283 -0.865288,1.21839 -0.265866,0.62516 -0.08695,-0.0485 0.293385,-0.64009 0.361652,-0.73624 0.09901,-0.3343 0.415257,-0.71353 -0.267124,0.22553 0.39617,-0.96403 0.864156,-1.30903 0.361681,-0.14022 -0.252924,0.57376 0.773102,-1.01021 0.275279,-0.46249 0.329939,-0.16846 1.105035,-1.54493 1.15478,-1.79022 1.514472,-2.15566 1.048979,-1.6495 1.166974,-1.35756 -0.182091,0.33641 1.223262,-1.42193 0.847188,-0.77871 0.463047,-0.14788 0.61651,-0.33309 -0.421766,0.67636 0.0079,0.81865 -0.707636,1.23095 -0.691265,0.6832 z"
       id="path252"
       inkscape:connector-curvature="0" />
    <path
       d="m 63.819273,166.73276 -0.401568,2.33146 -1.207619,2.0324 -3.02165,0.39702 -0.489054,-1.16363 -5.697307,1.4247 -5.052831,0.88016 -2.182931,-0.0303 -1.394544,-1.57675 0.255738,-1.33814 -2.545254,-1.94473 -2.883106,-3.1281 -2.559957,-3.52789 -0.974354,-0.25874 -0.767793,-1.34181 -1.729818,0.20669 -1.530199,0.79207 0.689639,-2.21627 -0.978916,-1.42503 0.733486,-2.90125 1.814427,-4.0429 0.192654,0.86739 -0.654833,1.47987 0.01556,0.98474 0.911761,-1.3779 0.88146,-0.80197 0.89325,0.31701 1.319407,-2.7418 0.518802,-2.46999 1.576573,-4.16035 2.950285,-4.34458 2.955931,-5.8417 0.986391,-2.63646 -0.07302,-1.7466 0.706123,-0.95676 1.508604,-0.40914 0.654577,0.49605 1.115268,-0.46013 1.242217,1.47257 1.95042,-1.50868 1.557102,-2.12001 0.939522,-0.39622 1.676716,-1.71077 2.022646,-0.50947 -2.016904,4.49381 0.827698,-0.65245 1.318254,0.35182 -2.512109,2.0307 -0.392337,0.76562 -2.268291,2.56882 -3.130676,4.84458 -0.221733,1.56469 -0.684071,1.67615 0.25466,1.36709 -1.569012,2.38942 0.01879,1.27022 -0.668373,1.22058 1.15215,1.68717 1.524439,0.47582 -0.480577,1.85106 1.746663,-1.46735 1.101236,0.72743 2.369746,-2.06534 2.136293,-3.80624 0.12248,4.92137 1.280586,-0.71363 1.527525,-1.86878 2.875965,3.14336 -0.496071,1.58446 0.113699,2.39163 0.287593,2.82325 -0.86371,2.53248 0.669871,0.81181 -0.468621,1.63395 1.625099,1.81416 z"
       id="path254"
       inkscape:connector-curvature="0" />
    <path
       id="path256"
       d=""
       inkscape:connector-curvature="0" />
    <path
       id="path258"
       d=""
       inkscape:connector-curvature="0" />
    <path
       id="path260"
       d=""
       inkscape:connector-curvature="0" />
    <path
       d="m 88.088196,62.223891 1.356665,-0.92037 0.257063,-0.01794 -1.082197,1.000246 -2.164882,1.590346 -1.713717,1.324484 0.418156,-0.662881 0.602243,-0.573361 z"
       id="path262"
       inkscape:connector-curvature="0" />
    <path
       id="path264"
       d=""
       inkscape:connector-curvature="0" />
    <path
       d="m 308.01106,6.8236914 1.20957,0.3000888 -0.70449,-0.1287259 1.23677,0.328592 -0.37395,-0.057833 -1.13339,-0.2159193 0.37262,0.1468783 -1.29154,-0.2518573 -1.82312,-0.4457898 -1.72998,-0.3599169 0.34722,-0.065923 -0.4565,-0.177924 -1.51582,-0.3354998 -0.87743,-0.2159812 0.12228,-0.00242 0.71258,0.1488737 2.5e-4,5.21e-5 z"
       id="path266"
       inkscape:connector-curvature="0" />
    <path
       d="m 86.708907,168.39593 0.340998,-5.00893 -0.276202,-1.94809 0.924395,-4.01472 5.272317,-4.29498 2.963432,-1.63925 3.268641,0.15927 0.220385,1.0674 1.262237,1.47376 0.59186,5.0045 3.51551,-1.08365 1.20849,-1.38738 2.36795,-0.11223 0.79112,0.79263 0.86728,3.22242 0.6272,1.23872 1.24556,-0.41864 1.12847,-1.17983 1.29837,0.12331 0.34573,2.04896 -0.0549,2.41662 -0.24285,2.46283 0.10877,3.57343 -2.29634,4.2809 -2.34936,1.83928 -3.60741,1.2223 -3.32067,0.64441 1.78743,-7.30221 -0.78748,-1.39885 -3.50521,0.29866 -4.32818,-0.56835 -2.607011,0.91838 z"
       id="path268"
       inkscape:connector-curvature="0" />
    <path
       id="path270"
       d=""
       inkscape:connector-curvature="0" />
    <path
       id="path272"
       d=""
       inkscape:connector-curvature="0" />
    <path
       id="path274"
       d=""
       inkscape:connector-curvature="0" />
    <path
       d="m 442.82659,142.67654 0.81091,2.68775 -0.45985,1.50036 -0.85407,-0.44342 -1.42523,-1.65542 -1.16213,0.77813 -1.65497,-1.88553 0.55847,-1.30435 0.42632,0.15663 0.4061,-1.57916 0.93829,0.005 0.62399,0.95212 z"
       id="path276"
       inkscape:connector-curvature="0" />
    <path
       d="m 305.40405,12.240293 -0.11521,-0.530753 0.57359,0.126067 0.006,0.06328 -0.0612,0.167754 0.0566,1.528111 -12.62303,-2.54825 -0.10682,2.921163 -3.71203,-0.514057 -1.04283,0.483958 0.53305,2.020732 -15.76968,-2.130446 -0.97353,0.361147 0.28996,-0.556673 0.0701,0.0096 9.09578,0.991057 0.55674,-0.414762 1.7275,-0.356005 1.55243,-1.524103 5.60844,-0.387287 1.94126,-1.046648 1.21114,0.13675 1.29253,-0.555052 3.21675,0.501356 1.37893,0.398698 1.73039,0.350604 1.22078,0.03203 z"
       id="path278"
       inkscape:connector-curvature="0" />
    <path
       d="m 481.27184,155.06141 -2.8171,-6.37906 -0.96138,-1.82791 -0.20724,0.23682 -0.60097,-1.04583 -0.66611,-1.54144 -0.57908,-1.05665 -1.68581,-3.17444 -0.39185,-0.78508 -1.99145,-3.43231 -0.41344,-0.61 -0.94979,-1.8186 -0.1013,0.31665 0.50558,1.26544 -0.58451,-0.58914 0,0 -0.55287,-1.35986 -0.79389,-1.58031 -0.45276,-1.12457 -1.26978,-2.32673 -1.72372,-3.4068 -1.26317,-2.57936 -1.99685,-3.45718 -1.04791,-1.62318 -2.26584,-3.84602 -0.94045,-1.72752 -0.53747,-1.05892 -2.3927,-3.75474 -1.4111,-2.03453 -1.36425,-1.86683 -1.36119,-1.95466 -0.15409,-0.26604 -1.21281,-1.687694 -0.89189,-1.1814 -1.76119,-2.345908 -2.34209,-2.979183 -2.00777,-2.464705 -1.07755,-1.27399 -0.38683,-0.473591 1.7e-4,1.91e-4 15.86363,20.81125 13.60135,22.35545 z"
       id="path280"
       inkscape:connector-curvature="0" />
    <path
       d="m 453.62644,124.93926 -0.34901,-0.44243 -0.0595,-1.15705 -0.37931,-1.16711 -1.39301,-2.39858 -0.5077,-2.04171 0.0609,-1.38579 -1.19512,-1.45438 -0.0979,0.32547 -1.52356,-1.54994 0.71259,1.34485 0.39757,1.64696 -1.28116,-0.22936 -1.15244,0.34056 -1.3503,-1.1735 -2.38202,-3.69042 -0.98978,-0.5361 -0.22912,0.41529 -1.39279,-0.9387 -0.0639,0.40039 -2.80095,-2.66103 -0.42045,-0.85521 -2.07225,-1.98198 -1.02061,-0.53595 -0.81232,-0.91944 -1.59845,-2.70794 -0.55304,-1.08252 -2.11956,-1.523242 -0.75538,0.385272 -0.68013,1.45867 -1.0298,-0.41677 -0.93254,-0.511839 -0.25224,-0.315055 -1.08893,-1.552944 -0.22495,-0.895808 0.45721,-0.574278 -0.0612,-0.95918 -1.8747,-2.868169 -0.42677,-1.253296 -0.01,-0.518249 -1.20104,-1.559592 -0.16593,-1.318744 -0.74791,-1.355972 -1.08083,-0.719342 0.21868,-0.558336 0.68697,-0.27799 -0.47833,-1.159251 0.91586,0.139057 -0.72289,-0.994609 0.58893,-0.655558 1.09469,-0.417403 2.62657,2.237298 -2.2898,-7.879392 -0.23875,-0.742552 3.32133,2.760364 -1.47851,-3.582581 10.93315,9.899708 9.73332,10.050173 9.07105,10.72779 1.6561,2.83857 -0.30648,-0.24633 1.24538,2.49948 1.79923,3.52481 1.02309,1.6053 1.46384,2.35658 -0.6603,-0.21793 -1.49786,-1.74852 -0.48784,-0.2322 0.22089,1.17071 -0.10527,2.03652 0.45813,1.20884 0.0577,1.50306 -0.52064,1.11176 -1.23933,-0.57237 -0.77361,0.57367 -0.12164,0.68458 -1.08231,-0.6835 -0.49092,1.67932 z"
       id="path282"
       inkscape:connector-curvature="0" />
    <path
       d="m 453.62644,124.93926 0.1581,1.94211 -0.33353,0.32688 -1.33548,-1.45013 -0.81279,0.44676 1.56795,1.92394 1.30465,2.672 0.45266,1.51351 1.13546,1.9065 1.42661,4.50776 -1.70996,-0.26169 -1.60293,-0.21823 -1.62716,-0.55905 -1.81161,-2.01488 -2.15098,-1.66237 -1.65488,-2.37477 -1.15899,-0.43104 -2.29321,-4.18131 -0.59671,-1.76384 -1.58065,-0.97359 -1.29307,-1.42719 -0.78406,-0.28772 -1.26537,-1.52358 -1.6463,-3.74503 -0.43778,-1.23597 -2.15944,-2.97453 -0.7159,-2.1676 -1.22736,-2.16095 -2.01435,-3.01766 -0.0344,-0.81808 -1.67094,-2.37701 -2.09864,-2.656769 0.93254,0.511839 1.0298,0.41677 0.68013,-1.45867 0.75538,-0.385272 2.11956,1.523242 0.55304,1.08252 1.59845,2.70794 0.81232,0.91944 1.02061,0.53595 2.07225,1.98198 0.42045,0.85521 2.80095,2.66103 0.0639,-0.40039 1.39279,0.9387 0.22912,-0.41529 0.98978,0.5361 2.38202,3.69042 1.3503,1.1735 1.15244,-0.34056 1.28116,0.22936 -0.39757,-1.64696 -0.71259,-1.34485 1.52356,1.54994 0.0979,-0.32547 1.19512,1.45438 -0.0609,1.38579 0.5077,2.04171 1.39301,2.39858 0.37931,1.16711 0.0595,1.15705 z"
       id="path284"
       inkscape:connector-curvature="0" />
    <path
       d="m 271.41388,26.472777 -1.48664,-1.64009 -1.97975,-0.861955 1.90641,-0.158795 2.24558,-1.033752 1.14491,-0.782469 1.51755,-0.384105 2.04056,0.397109 2.08381,-0.111723 2.31676,0.2937 1.90667,0.782441 2.68758,0.869601 2.34014,1.694874 2.58709,1.704443 0.0489,1.189287 0.68939,1.230911 1.49868,0.82002 0.26691,0.819599 -0.26722,0.580442 -0.61886,0.0032 -2.2682,-0.557828 -0.34328,0.166986 -0.93209,-0.11196 -2.95839,-0.973812 -2.02857,-0.333396 -7.78238,-1.159315 -1.16761,0.08133 -1.39013,-0.230857 -2.29398,0.06635 -0.44522,-1.571477 3.83486,0.478992 1.05585,-0.145965 0.75749,0.07845 1.62847,-0.240984 1.74366,0.645882 1.8223,0.289509 1.87888,-0.164754 -0.76986,-0.673523 -1.42936,0.119873 -1.30198,-0.190562 -1.58787,-0.687977 -1.33642,-0.142448 -1.01953,0.32737 z"
       id="path286"
       inkscape:connector-curvature="0" />
    <path
       id="path288"
       d=""
       inkscape:connector-curvature="0" />
    <path
       d="m 291.71006,44.217782 -1.12494,-0.381104 -2.94353,-1.472024 -2.05384,-1.599623 -0.63158,-0.949769 -0.29279,-1.736168 2.4063,-0.601765 0.57074,-0.523322 0.78665,-0.345051 1.17418,0.149828 1.03934,-0.233277 3.37951,0.61391 1.07926,0.992472 0.80197,1.092725 -0.21645,0.614576 0.6061,0.713202 -0.15008,0.813109 1.18141,0.100379 -2.10448,0.671891 -2.07652,0.884161 -0.31451,0.633617 z"
       id="path290"
       inkscape:connector-curvature="0" />
    <path
       id="path292"
       d=""
       inkscape:connector-curvature="0" />
    <path
       d="m 483.70455,170.53954 -0.53083,0.13502 -0.92398,-0.0719 -1.3612,-2.66414 -5.98623,-13.30771 -0.80423,-2.08196 -0.83149,-2.34367 -0.87723,-2.503 0.30189,-0.20594 0.50573,-0.18487 0.68125,1.45322 0.51445,1.6253 0.97199,2.43625 0.90145,1.55065 1.57717,2.30176 1.8017,3.11855 1.3141,1.99665 0.75612,1.40377 0.47888,0.67389 0.84743,1.72032 -0.002,0.0214 0.15951,1.02823 0.35219,2.56275 z"
       id="path294"
       inkscape:connector-curvature="0" />
    <path
       d="m 484.11443,167.65415 0.70869,1.43963 0.49886,0.65004 0.51158,1.20788 0.15778,0.77247 0.12596,1.18107 0.21,1.35411 -0.15775,0.2453 -0.0594,1.87615 -0.42887,1.3466 -0.72477,1.34812 -1.24333,1.1053 -1.40897,0.23707 -2.13976,-0.10329 -1.90958,-0.99933 -2.99922,-2.03015 -2.03477,-0.84172 -2.65733,-0.0634 -0.71471,0.75333 -0.57603,-0.0379 -0.81756,-4.12995 1.18752,-10.00052 1.9788,-0.33574 0.58566,0.01 1.26448,1.94371 1.76651,0.91684 2.40051,3.98173 4.61104,1.12134 0.92398,0.0719 0.53083,-0.13502 -0.1538,-1.33539 -0.35219,-2.56275 -0.15951,-1.02823 0.002,-0.0214 0.46556,0.96757 z"
       id="path296"
       inkscape:connector-curvature="0" />
    <path
       id="path298"
       d=""
       inkscape:connector-curvature="0" />
    <path
       d="m 104.64238,70.828426 4.05665,-1.628931 0.49653,-0.628217 2.91227,-1.56126 3.68075,-1.134248 -2.40616,2.987743 -0.11825,1.590412 1.08396,0.862093 -0.86365,1.398377 -0.55595,1.33674 -1.13086,1.530277 -1.94866,0.409579 -1.73439,1.079097 -1.38586,0.46746 -0.49856,0.93889 0.49577,0.233469 -0.41715,0.701142 -1.87713,0.74073 -1.70008,-1.201173 -0.15504,-1.232224 -1.10958,0.579668 -1.11729,-1.052366 0.94164,-1.649689 -0.0419,-0.494418 2.25839,-1.761179 z"
       id="path300"
       inkscape:connector-curvature="0" />
    <path
       id="path302"
       d=""
       inkscape:connector-curvature="0" />
    <path
       id="path304"
       d=""
       inkscape:connector-curvature="0" />
    <path
       id="path306"
       d=""
       inkscape:connector-curvature="0" />
    <path
       d="m 416.38493,226.59077 -1.33125,0.95209 -1.59669,-1.10737 -0.409,-3.28646 0.62379,-1.17286 1.36139,-0.56262 0.76601,-0.72696 0.83226,0.49422 0.87465,1.88339 -0.48646,1.85275 z"
       id="path308"
       inkscape:connector-curvature="0" />
    <path
       id="path310"
       d=""
       inkscape:connector-curvature="0" />
    <path
       d="m 394.33764,68.697739 0.26214,-0.778265 -2.23084,-1.377301 -0.11813,-1.319178 -1.52878,-1.601237 1.16669,-1.729249 4.05737,0.814956 -0.31118,-2.318242 0.35991,-2.801119 0.49329,-0.28486 -1.5474,-1.431338 -0.22448,-0.560298 -1.37208,-1.185507 -1.70757,-2.948084 2.92112,1.191053 13.82085,11.504848 13.24066,12.565 2.2898,7.879392 -2.62657,-2.237298 -1.09469,0.417403 -0.58893,0.655558 0.72289,0.994609 -0.91586,-0.139057 0.47833,1.159251 -0.68697,0.27799 -0.21868,0.558336 1.08083,0.719342 0.74791,1.355972 0.16593,1.318744 1.20104,1.559592 0.01,0.518249 -1.94159,-1.15759 -1.5325,-0.305193 -2.17887,0.784571 -3.0132,-1.148054 -3.17282,-2.400072 -0.93035,-0.43568 0.33907,1.056415 -1.73377,-0.370961 -1.42998,-0.03796 -4.29399,-1.911255 -0.84766,-1.09637 -0.56949,-0.411887 -0.6489,0.211281 -2.87851,-1.618662 0.56258,-0.310488 -1.07395,-2.313359 -0.48604,-1.270668 -1.52549,-1.320851 -2.08327,-2.583441 0.75273,-0.61802 1.60317,1.186286 0.98261,0.436883 1.94122,1.216977 -1.95117,-3.20314 0.0598,-1.384243 -0.31795,-1.577378 z"
       id="path312"
       inkscape:connector-curvature="0" />
    <path
       d="m 346.70503,61.01079 -3.2738,-0.680053 -0.81814,-1.175591 -0.93689,-1.901843 -0.22042,-1.286211 1.049,-1.768305 -0.94672,-1.190389 -0.2658,-1.90221 0.0988,-1.592831 -1.61067,-1.698158 0.32626,-0.562138 3.48565,1.285284 -0.55609,0.945809 1.18411,1.081156 1.34107,1.274626 0.0915,1.143667 0.7738,0.759469 -0.56186,5.242408 z"
       id="path314"
       inkscape:connector-curvature="0" />
    <path
       id="path316"
       d=""
       inkscape:connector-curvature="0" />
    <path
       id="path318"
       d=""
       inkscape:connector-curvature="0" />
    <path
       id="path320"
       d=""
       inkscape:connector-curvature="0" />
    <path
       id="path322"
       d=""
       inkscape:connector-curvature="0" />
    <path
       d="m 93.271999,68.300195 1.975795,-1.424054 0.649349,-0.334867 -0.802723,1.72964 -2.800628,1.901799 -0.49799,0.158856 1.179305,-1.195573 z"
       id="path324"
       inkscape:connector-curvature="0" />
    <path
       d="m 365.16967,28.108252 0.31701,0.170628 1.471,0.766597 2.2e-4,1.17e-4 1.08325,0.576803 10e-4,6.74e-4 -0.98263,-0.508988 0.44472,0.26728 1.29061,0.707959 0.45174,0.365845 -1.54431,-0.703179 1.08705,0.706871 1.61474,0.854595 1.21609,0.787993 1.31896,0.760593 0.5246,0.554817 -1.27118,-0.567576 -0.69556,-0.229338 -1.86464,-0.788836 0.67301,0.558524 0.0543,0.258872 -1.40165,-0.581289 0,0 -2.77361,-2.323188 -2.29787,-1.30696 -0.22123,-0.206992 -3.09289,-1.71106 -0.88784,-0.667639 1.47862,0.553574 0.0105,-0.165052 -1.35454,-0.781089 0.1407,0.03331 2.42959,1.19521 2.3e-4,1.12e-4 z"
       id="path326"
       inkscape:connector-curvature="0" />
    <path
       id="path328"
       d=""
       inkscape:connector-curvature="0" />
    <path
       id="path330"
       d=""
       inkscape:connector-curvature="0" />
    <path
       d="m 452.08785,152.03127 0.37563,0.79456 7.63367,16.41564 -0.20093,1.8556 2.53589,7.18336 -1.92671,2.16145 -0.32142,1.8248 1.09449,2.99185 -0.15644,0.8491 -1.12591,0.93687 -0.1511,1.06481 -0.58685,1.20897 0.14607,2.90045 -0.12736,4.16692 0.53688,1.75523 -2.30596,-0.66345 -2.79768,-2.09034 -1.3118,-1.82004 -1.13647,-0.14257 -1.61491,-1.95586 -0.74481,-0.37623 -2.51378,-4.32562 -1.90581,-1.90649 0.75378,-4.9266 -0.37304,-2.37479 -0.23175,-1.4056 -2.30534,-3.33642 -1.18342,-2.49816 -1.5099,-2.28042 -0.90487,-1.61056 -0.89102,-1.92052 -0.39698,-5.25714 -1.1512,-3.25269 -0.11627,-2.26092 0.65474,-1.25643 0.12718,-3.17793 1.18105,0.99398 1.23478,-0.051 1.38977,-0.42654 0.79694,0.0847 0.16523,-0.95572 -0.45715,-1.24548 0.0584,-1.28095 0.85413,0.44357 0.45985,-1.50036 -0.81091,-2.68775 1.0119,0.63995 2.93702,3.11152 z"
       id="path332"
       inkscape:connector-curvature="0" />
    <path
       d="m 446.77551,146.42801 -2.93702,-3.11152 -1.0119,-0.63995 -1.79217,-0.78754 -0.62399,-0.95212 0.36496,-2.08194 0.80455,-0.42204 0.46552,-2.05431 0.74339,-0.68879 1.2163,-0.35594 1.1244,0.35184 0.96657,-0.057 -1.04803,-1.48248 0.42547,-2.93966 1.15899,0.43104 1.65488,2.37477 2.15098,1.66237 1.81161,2.01488 1.62716,0.55905 1.07854,3.20019 0.19464,1.67205 0.80824,4.36094 -1.11732,0.91602 -1.456,0.38048 -0.87478,0.28574 -0.42265,2.96718 z"
       id="path334"
       inkscape:connector-curvature="0" />
    <path
       id="path336"
       d=""
       inkscape:connector-curvature="0" />
    <path
       d="m 108.76405,188.93783 1.85041,-1.42631 3.77578,1.43418 1.10437,-0.66784 3.75018,0.97939 2.92641,1.04777 2.41406,1.87325 -0.89829,2.46302 1.39338,1.85475 -0.67684,3.06286 -2.76797,3.74026 -2.38007,0.25378 -1.45434,1.19667 -3.15349,-0.31782 -1.90491,1.14533 -2.37713,-1.2044 -0.51844,-2.61283 0.3747,-1.19602 -1.11606,-3.81457 -0.28755,-4.35994 z"
       id="path338"
       inkscape:connector-curvature="0" />
    <path
       id="path340"
       d=""
       inkscape:connector-curvature="0" />
    <path
       id="path342"
       d=""
       inkscape:connector-curvature="0" />
    <path
       d="m 65.742259,87.309584 -0.329134,0.595853 -1.692661,1.680665 0.394546,0.234438 -0.56536,1.222728 -1.753276,2.416042 0.25917,0.934729 1.22511,-1.199826 1.294188,-2.230504 -0.497037,-0.06595 0.628086,-1.608091 3.815455,-3.884821 0.116367,-0.722168 1.305462,-1.519713 0.250138,0.71473 1.953829,-1.590378 1.285856,-0.244127 -0.2146,0.657084 2.596211,-2.012868 3.255356,-2.604629 1.291904,-0.243357 2.208232,-1.371975 2.012771,-1.898844 0.271913,-0.587622 3.913748,-2.717781 3.817584,-2.463597 -2.976756,2.373812 0.657676,0.363099 2.498471,-1.440144 2.037327,-0.385635 -0.143097,1.529033 1.736286,-1.066553 1.111977,-0.207 -3.084643,2.911667 -0.566357,1.036308 0.854759,0.218311 -0.958753,0.936087 -2.140561,1.603551 -0.264043,1.084887 -1.07819,1.216941 1.715347,0.535935 0.256703,0.446249 -1.447832,1.687281 -3.886303,3.207385 -2.412447,1.878255 -1.064352,1.209493 -2.372918,1.032899 -2.240213,1.25787 -0.638676,0.641714 1.23763,-0.298424 -0.513757,1.8278 0.092,1.356763 2.630223,-1.574882 0.06368,0.443174 -2.404188,2.27375 -0.571283,1.384085 -1.366292,1.329086 -2.413557,2.252867 -0.732282,1.257554 -2.399612,1.90534 -1.420582,-0.196 -0.419642,-1.98171 -0.604419,-0.32046 -0.951303,0.25125 1.780723,-2.466657 0.02906,-0.504875 -0.662818,-0.120653 -0.175074,-1.247093 0.70788,-2.001339 0.890136,-1.354734 0.918071,-1.752673 -0.915312,0.380732 -1.749157,1.593027 -2.038,1.543232 -1.232773,1.215799 -1.323016,-0.455337 -1.512963,1.079932 -3.582721,3.365939 -0.352877,-0.26837 -0.586502,0.40486 0.08227,-0.421542 0.633261,-1.190937 0.145022,-0.773613 -0.385343,0.01958 0.08597,-0.775257 -1.284582,1.12669 1.281769,-2.067383 1.028695,-1.959853 1.140691,-1.56961 1.317133,-1.601331 1.20136,-1.744606 z"
       id="path344"
       inkscape:connector-curvature="0" />
    <path
       id="path346"
       d=""
       inkscape:connector-curvature="0" />
    <path
       id="path348"
       d=""
       inkscape:connector-curvature="0" />
    <path
       id="path350"
       d=""
       inkscape:connector-curvature="0" />
    <path
       d="m 483.01533,159.42487 1.38495,3.6762 0.97158,2.72803 0,0 -0.65206,-1.63394 0.10496,0.4711 0.22483,0.7603 -0.974,-2.12003 -1.88092,-3.90489 -0.86954,-1.09475 -0.63318,-1.2483 -0.49642,-1.08468 -0.67796,-0.81794 -0.92204,-1.52125 -1.36908,-2.48536 -0.39958,-0.64542 -0.23907,-0.0364 -0.41821,-0.63428 -0.14616,0.13956 -0.88854,-1.58269 -0.51115,-0.65491 -1.29427,-2.24931 -0.76885,-2.20186 -0.23267,-1.21833 -0.4683,-1.19753 -0.79979,-2.33394 -0.79795,-1.82529 0.34705,0.49011 -0.49194,-1.3663 0.0975,-0.0798 -0.38717,-1.13313 0.58451,0.58914 -0.50558,-1.26544 0.1013,-0.31665 0.94979,1.8186 0.41344,0.61 1.99145,3.43231 0.39185,0.78508 1.68581,3.17444 0.57908,1.05665 0.66611,1.54144 0.60097,1.04583 0.20724,-0.23682 0.96138,1.82791 2.8171,6.37906 9e-5,2.3e-4 z"
       id="path352"
       inkscape:connector-curvature="0" />
    <path
       d="m 410.13583,233.5713 -0.74877,0.002 -2.02484,0.66328 -1.70724,1.04704 -2.81646,1.05573 -4.83752,0.8515 -2.95293,0.43089 -2.78466,-0.14025 -3.37535,-0.97441 -1.37356,-0.93316 -0.89883,0.68733 -1.21708,-1.8284 -1.64399,-0.39178 -2.38908,-2.97269 -1.82219,-0.83271 -0.98259,-1.04405 -3.51357,-0.69378 -2.59909,-1.14078 -2.40425,0.15073 -1.28292,-0.79961 -0.47831,-2.12095 -0.89915,-0.7191 -0.3643,-2.46239 -0.38989,0.41775 0.12502,-1.24021 1.09195,-2.13815 0.28575,-3.08148 1.25049,-0.0404 1.29091,-2.85231 -0.28047,-4.69711 -0.0592,-4.07301 0,-0.0127 -0.05,-6.13762 2.24928,-0.85411 0.76034,1.77602 -0.18585,1.88442 1.22393,1.1599 1.55226,1.95003 1.70355,0.83081 3.47068,0.014 5.97428,-13.08227 0.57647,1.11103 0.25487,4.62378 -1.25708,1.9461 0.0748,1.71985 2.24161,1.19693 2.17833,-0.46402 1.85294,0.004 1.48837,-1.11616 1.76789,0.30166 0.98934,1.38137 0.86814,2.06206 2.16424,2.05281 2.14214,0.69898 0.8057,-0.82637 1.28468,-1.2128 1.60722,1.02741 1.43955,-0.54759 2.0008,-1.43794 3.61863,-0.29154 4.90535,1.11063 1.03176,1.0724 0.95855,1.79584 1.05028,0.47283 1.16771,1.70178 -1.21177,5.84647 -0.62076,2.99928 -2.44696,3.20684 -0.45884,1.39949 -0.87465,-1.88339 -0.83226,-0.49422 -0.76601,0.72696 -1.36139,0.56262 -0.62379,1.17286 0.409,3.28646 1.59669,1.10737 1.33125,-0.95209 1.75643,1.95306 -1.99032,1.75631 -1.91364,2.43852 -1.5006,0.84438 z m -5.50596,-7.16609 -0.48837,-2.0832 -1.56398,-0.41514 -2.12086,0.0618 -2.57827,0.9325 0.37433,4.36635 1.08612,0.48885 1.09187,-0.66117 1.68256,0.77644 1.06575,-0.70409 1.71217,-0.91447 z"
       id="path354"
       inkscape:connector-curvature="0" />
    <path
       d="m 443.32619,172.81687 0.77221,2.67788 -0.21311,3.29022 -0.71026,0.34315 -1.37432,1.91086 -0.44334,3.08389 -1.19138,0.19395 -1.86765,2.03659 1.00434,2.26523 -8.8441,-5.69845 -0.64718,2.50927 -2.19558,-1.57687 -2.0506,-0.22498 -0.78176,0.7944 -1.07858,-0.6793 -3.48374,0.4178 -2.41517,0.70032 -0.97647,-0.77586 -0.75873,-1.1931 -3.04575,-3.13998 -0.42092,-0.68911 0.0877,-0.29144 -0.85372,-1.71129 -1.83173,-1.7725 -2.72802,-1.2246 -1.1788,-3.62504 -1.0678,-4.29939 3.69974,-10.23472 6.38413,5.1201 0.10787,-1.30992 0.84071,-0.81811 -0.0546,-1.91967 0.82816,-1.24322 -0.0188,-1.23728 1.02334,0.94121 -0.13096,1.11795 1.43445,1.10302 1.80034,1.89879 0.52491,2.27597 2.19181,2.49484 2.08949,0.59882 0.0904,2.22433 2.01529,2.44791 0.56171,2.30764 0.51556,2.81594 2.07819,2.066 0.98299,-3.59318 -0.94826,-0.16934 -1.50601,-3.07736 -0.5639,-1.27094 1.38138,-2.78493 1.64844,-3.16363 -0.21952,-1.94454 1.37388,-1.17428 0.85486,0.36045 3.84474,3.14708 0.97493,1.38982 0.89099,1.92046 0.90487,1.61056 1.5099,2.28042 z"
       id="path356"
       inkscape:connector-curvature="0" />
    <path
       d="m 422.24442,209.61212 -1.16771,-1.70178 -1.05028,-0.47283 -0.95855,-1.79584 -1.03176,-1.0724 -0.94144,-3.10827 -1.81161,-2.45465 0.18752,-2.83838 0.52805,-1.173 -1.0046,-1.42894 -1.53971,-6.45181 -0.0772,-2.6909 -0.32675,-1.0865 -0.0254,-3.58493 3.04575,3.13998 0.75873,1.1931 0.97647,0.77586 2.41517,-0.70032 3.48374,-0.4178 1.07858,0.6793 0.78176,-0.7944 2.0506,0.22498 2.19558,1.57687 -0.31159,1.3588 2.20687,2.17315 0.91478,1.92054 0.21895,1.36794 1.1073,1.52379 0.85823,2.43415 -1.79002,4.02204 -1.50103,1.68256 -1.2341,2.27733 -0.062,1.38198 -1.19692,1.58939 -0.5133,-0.11011 -1.79987,1.62873 z"
       id="path358"
       inkscape:connector-curvature="0" />
  </g>
</svg>
